  0
SECTION
  2
HEADER
  9
$ACADVER
  1
AC1032
  9
$ACADMAINTVER
 90
      197
  9
$DWGCODEPAGE
  3
ANSI_1252
  9
$REQUIREDVERSIONS
160
                 0
  9
$INSBASE
 10
0.0
 20
0.0
 30
0.0
  9
$EXTMIN
 10
1.000000000000000E+20
 20
1.000000000000000E+20
 30
1.000000000000000E+20
  9
$EXTMAX
 10
-1.000000000000000E+20
 20
-1.000000000000000E+20
 30
-1.000000000000000E+20
  9
$LIMMIN
 10
0.0
 20
0.0
  9
$LIMMAX
 10
12.0
 20
9.0
  9
$ORTHOMODE
 70
     0
  9
$REGENMODE
 70
     1
  9
$FILLMODE
 70
     1
  9
$QTEXTMODE
 70
     0
  9
$MIRRTEXT
 70
     0
  9
$LTSCALE
 40
1.0
  9
$ATTMODE
 70
     1
  9
$TEXTSIZE
 40
0.2
  9
$TRACEWID
 40
0.05
  9
$TEXTSTYLE
  7
Standard
  9
$CLAYER
  8
0
  9
$CELTYPE
  6
ByLayer
  9
$CECOLOR
 62
   256
  9
$CELTSCALE
 40
1.0
  9
$DISPSILH
 70
     0
  9
$DIMSCALE
 40
1.0
  9
$DIMASZ
 40
0.18
  9
$DIMEXO
 40
0.0625
  9
$DIMDLI
 40
0.38
  9
$DIMRND
 40
0.0
  9
$DIMDLE
 40
0.0
  9
$DIMEXE
 40
0.18
  9
$DIMTP
 40
0.0
  9
$DIMTM
 40
0.0
  9
$DIMTXT
 40
0.18
  9
$DIMCEN
 40
0.09
  9
$DIMTSZ
 40
0.0
  9
$DIMTOL
 70
     0
  9
$DIMLIM
 70
     0
  9
$DIMTIH
 70
     1
  9
$DIMTOH
 70
     1
  9
$DIMSE1
 70
     0
  9
$DIMSE2
 70
     0
  9
$DIMTAD
 70
     0
  9
$DIMZIN
 70
     0
  9
$DIMBLK
  1

  9
$DIMASO
 70
     1
  9
$DIMSHO
 70
     1
  9
$DIMPOST
  1

  9
$DIMAPOST
  1

  9
$DIMALT
 70
     0
  9
$DIMALTD
 70
     2
  9
$DIMALTF
 40
25.4
  9
$DIMLFAC
 40
1.0
  9
$DIMTOFL
 70
     0
  9
$DIMTVP
 40
0.0
  9
$DIMTIX
 70
     0
  9
$DIMSOXD
 70
     0
  9
$DIMSAH
 70
     0
  9
$DIMBLK1
  1

  9
$DIMBLK2
  1

  9
$DIMSTYLE
  2
Standard
  9
$DIMCLRD
 70
     0
  9
$DIMCLRE
 70
     0
  9
$DIMCLRT
 70
     0
  9
$DIMTFAC
 40
1.0
  9
$DIMGAP
 40
0.09
  9
$DIMJUST
 70
     0
  9
$DIMSD1
 70
     0
  9
$DIMSD2
 70
     0
  9
$DIMTOLJ
 70
     1
  9
$DIMTZIN
 70
     0
  9
$DIMALTZ
 70
     0
  9
$DIMALTTZ
 70
     0
  9
$DIMUPT
 70
     0
  9
$DIMDEC
 70
     4
  9
$DIMTDEC
 70
     4
  9
$DIMALTU
 70
     2
  9
$DIMALTTD
 70
     2
  9
$DIMTXSTY
  7
Standard
  9
$DIMAUNIT
 70
     0
  9
$DIMADEC
 70
     0
  9
$DIMALTRND
 40
0.0
  9
$DIMAZIN
 70
     0
  9
$DIMDSEP
 70
    46
  9
$DIMATFIT
 70
     3
  9
$DIMFRAC
 70
     0
  9
$DIMLDRBLK
  1

  9
$DIMLUNIT
 70
     2
  9
$DIMLWD
 70
    -2
  9
$DIMLWE
 70
    -2
  9
$DIMTMOVE
 70
     0
  9
$DIMFXL
 40
1.0
  9
$DIMFXLON
 70
     0
  9
$DIMJOGANG
 40
0.7853981633974483
  9
$DIMTFILL
 70
     0
  9
$DIMTFILLCLR
 70
     0
  9
$DIMARCSYM
 70
     0
  9
$DIMLTYPE
  6

  9
$DIMLTEX1
  6

  9
$DIMLTEX2
  6

  9
$DIMTXTDIRECTION
 70
     0
  9
$LUNITS
 70
     2
  9
$LUPREC
 70
     4
  9
$SKETCHINC
 40
0.1
  9
$FILLETRAD
 40
0.0
  9
$AUNITS
 70
     0
  9
$AUPREC
 70
     0
  9
$MENU
  1
.
  9
$ELEVATION
 40
0.0
  9
$PELEVATION
 40
0.0
  9
$THICKNESS
 40
0.0
  9
$LIMCHECK
 70
     0
  9
$CHAMFERA
 40
0.0
  9
$CHAMFERB
 40
0.0
  9
$CHAMFERC
 40
0.0
  9
$CHAMFERD
 40
0.0
  9
$SKPOLY
 70
     0
  9
$TDCREATE
 40
2459699.448194445
  9
$TDUCREATE
 40
2459699.364861111
  9
$TDUPDATE
 40
2459699.448194445
  9
$TDUUPDATE
 40
2459699.364861111
  9
$TDINDWG
 40
0.0000000000
  9
$TDUSRTIMER
 40
0.0000000000
  9
$USRTIMER
 70
     1
  9
$ANGBASE
 50
0.0
  9
$ANGDIR
 70
     0
  9
$PDMODE
 70
     0
  9
$PDSIZE
 40
0.0
  9
$PLINEWID
 40
0.0
  9
$SPLFRAME
 70
     0
  9
$SPLINETYPE
 70
     6
  9
$SPLINESEGS
 70
     8
  9
$HANDSEED
  5
AC
  9
$SURFTAB1
 70
     6
  9
$SURFTAB2
 70
     6
  9
$SURFTYPE
 70
     6
  9
$SURFU
 70
     6
  9
$SURFV
 70
     6
  9
$UCSBASE
  2

  9
$UCSNAME
  2

  9
$UCSORG
 10
0.0
 20
0.0
 30
0.0
  9
$UCSXDIR
 10
1.0
 20
0.0
 30
0.0
  9
$UCSYDIR
 10
0.0
 20
1.0
 30
0.0
  9
$UCSORTHOREF
  2

  9
$UCSORTHOVIEW
 70
     0
  9
$UCSORGTOP
 10
0.0
 20
0.0
 30
0.0
  9
$UCSORGBOTTOM
 10
0.0
 20
0.0
 30
0.0
  9
$UCSORGLEFT
 10
0.0
 20
0.0
 30
0.0
  9
$UCSORGRIGHT
 10
0.0
 20
0.0
 30
0.0
  9
$UCSORGFRONT
 10
0.0
 20
0.0
 30
0.0
  9
$UCSORGBACK
 10
0.0
 20
0.0
 30
0.0
  9
$PUCSBASE
  2

  9
$PUCSNAME
  2

  9
$PUCSORG
 10
0.0
 20
0.0
 30
0.0
  9
$PUCSXDIR
 10
1.0
 20
0.0
 30
0.0
  9
$PUCSYDIR
 10
0.0
 20
1.0
 30
0.0
  9
$PUCSORTHOREF
  2

  9
$PUCSORTHOVIEW
 70
     0
  9
$PUCSORGTOP
 10
0.0
 20
0.0
 30
0.0
  9
$PUCSORGBOTTOM
 10
0.0
 20
0.0
 30
0.0
  9
$PUCSORGLEFT
 10
0.0
 20
0.0
 30
0.0
  9
$PUCSORGRIGHT
 10
0.0
 20
0.0
 30
0.0
  9
$PUCSORGFRONT
 10
0.0
 20
0.0
 30
0.0
  9
$PUCSORGBACK
 10
0.0
 20
0.0
 30
0.0
  9
$USERI1
 70
     0
  9
$USERI2
 70
     0
  9
$USERI3
 70
     0
  9
$USERI4
 70
     0
  9
$USERI5
 70
     0
  9
$USERR1
 40
0.0
  9
$USERR2
 40
0.0
  9
$USERR3
 40
0.0
  9
$USERR4
 40
0.0
  9
$USERR5
 40
0.0
  9
$WORLDVIEW
 70
     1
  9
$SHADEDGE
 70
     3
  9
$SHADEDIF
 70
    70
  9
$TILEMODE
 70
     1
  9
$MAXACTVP
 70
    64
  9
$PINSBASE
 10
0.0
 20
0.0
 30
0.0
  9
$PLIMCHECK
 70
     0
  9
$PEXTMIN
 10
1.000000000000000E+20
 20
1.000000000000000E+20
 30
1.000000000000000E+20
  9
$PEXTMAX
 10
-1.000000000000000E+20
 20
-1.000000000000000E+20
 30
-1.000000000000000E+20
  9
$PLIMMIN
 10
0.0
 20
0.0
  9
$PLIMMAX
 10
12.0
 20
9.0
  9
$UNITMODE
 70
     0
  9
$VISRETAIN
 70
     1
  9
$PLINEGEN
 70
     0
  9
$PSLTSCALE
 70
     1
  9
$TREEDEPTH
 70
  3020
  9
$CMLSTYLE
  2
Standard
  9
$CMLJUST
 70
     0
  9
$CMLSCALE
 40
1.0
  9
$PROXYGRAPHICS
 70
     1
  9
$MEASUREMENT
 70
     0
  9
$CELWEIGHT
370
    -1
  9
$ENDCAPS
280
     0
  9
$JOINSTYLE
280
     0
  9
$LWDISPLAY
290
     1
  9
$INSUNITS
 70
     4
  9
$HYPERLINKBASE
  1

  9
$STYLESHEET
  1

  9
$XEDIT
290
     1
  9
$CEPSNTYPE
380
     0
  9
$PSTYLEMODE
290
     1
  9
$FINGERPRINTGUID
  2
{276E7808-7F5E-2443-800D-5D43FD7B3544}
  9
$VERSIONGUID
  2
{ECB9ECA7-F272-8246-9575-AA52035949DA}
  9
$EXTNAMES
290
     1
  9
$PSVPSCALE
 40
0.0
  9
$OLESTARTUP
290
     0
  9
$SORTENTS
280
   127
  9
$INDEXCTL
280
     0
  9
$HIDETEXT
280
     1
  9
$XCLIPFRAME
280
     2
  9
$HALOGAP
280
     0
  9
$OBSCOLOR
 70
   257
  9
$OBSLTYPE
280
     0
  9
$INTERSECTIONDISPLAY
280
     0
  9
$INTERSECTIONCOLOR
 70
   257
  9
$DIMASSOC
280
     2
  9
$PROJECTNAME
  1

  9
$CAMERADISPLAY
290
     0
  9
$LENSLENGTH
 40
50.0
  9
$CAMERAHEIGHT
 40
0.0
  9
$STEPSPERSEC
 40
2.0
  9
$STEPSIZE
 40
6.0
  9
$3DDWFPREC
 40
2.0
  9
$PSOLWIDTH
 40
0.25
  9
$PSOLHEIGHT
 40
4.0
  9
$LOFTANG1
 40
1.570796326794896
  9
$LOFTANG2
 40
1.570796326794896
  9
$LOFTMAG1
 40
0.0
  9
$LOFTMAG2
 40
0.0
  9
$LOFTPARAM
 70
     7
  9
$LOFTNORMALS
280
     1
  9
$LATITUDE
 40
37.795
  9
$LONGITUDE
 40
-122.394
  9
$NORTHDIRECTION
 40
0.0
  9
$TIMEZONE
 70
 -8000
  9
$LIGHTGLYPHDISPLAY
280
     1
  9
$TILEMODELIGHTSYNCH
280
     1
  9
$CMATERIAL
347
11
  9
$SOLIDHIST
280
     0
  9
$SHOWHIST
280
     1
  9
$DWFFRAME
280
     2
  9
$DGNFRAME
280
     0
  9
$REALWORLDSCALE
290
     1
  9
$INTERFERECOLOR
 62
     1
  9
$INTERFEREOBJVS
345
33
  9
$INTERFEREVPVS
346
30
  9
$CSHADOW
280
     0
  9
$SHADOWPLANELOCATION
 40
0.0
  0
ENDSEC
  0
SECTION
  2
CLASSES
  0
CLASS
  1
ACDBDICTIONARYWDFLT
  2
AcDbDictionaryWithDefault
  3
ObjectDBX Classes
 90
        0
 91
        1
280
     0
281
     0
  0
CLASS
  1
MATERIAL
  2
AcDbMaterial
  3
ObjectDBX Classes
 90
     1153
 91
        3
280
     0
281
     0
  0
CLASS
  1
VISUALSTYLE
  2
AcDbVisualStyle
  3
ObjectDBX Classes
 90
     4095
 91
       24
280
     0
281
     0
  0
CLASS
  1
SCALE
  2
AcDbScale
  3
ObjectDBX Classes
 90
     1153
 91
       17
280
     0
281
     0
  0
CLASS
  1
TABLESTYLE
  2
AcDbTableStyle
  3
ObjectDBX Classes
 90
     4095
 91
        1
280
     0
281
     0
  0
CLASS
  1
MLEADERSTYLE
  2
AcDbMLeaderStyle
  3
ACDB_MLEADERSTYLE_CLASS
 90
     4095
 91
        1
280
     0
281
     0
  0
CLASS
  1
ACDBSECTIONVIEWSTYLE
  2
AcDbSectionViewStyle
  3
ObjectDBX Classes
 90
     1025
 91
        1
280
     0
281
     0
  0
CLASS
  1
ACDBDETAILVIEWSTYLE
  2
AcDbDetailViewStyle
  3
ObjectDBX Classes
 90
     1025
 91
        1
280
     0
281
     0
  0
CLASS
  1
DICTIONARYVAR
  2
AcDbDictionaryVar
  3
ObjectDBX Classes
 90
        0
 91
        5
280
     0
281
     0
  0
CLASS
  1
CELLSTYLEMAP
  2
AcDbCellStyleMap
  3
ObjectDBX Classes
 90
     1152
 91
        1
280
     0
281
     0
  0
ENDSEC
  0
SECTION
  2
TABLES
  0
TABLE
  2
VPORT
  5
8
330
0
100
AcDbSymbolTable
 70
     1
  0
VPORT
  5
57
330
8
100
AcDbSymbolTableRecord
100
AcDbViewportTableRecord
  2
*Active
 70
     0
 10
0.0
 20
0.0
 11
1.0
 21
1.0
 12
0.0
 22
0.0
 13
0.0
 23
0.0
 14
1.0
 24
1.0
 15
0.0
 25
0.0
 16
0.0
 26
0.0
 36
1.0
 17
148.5000119155931
 27
-104.9999970067632
 37
0.0
 40
214.199993893797
 41
1.414285868084624
 42
50.0
 43
0.0
 44
0.0
 50
0.0
 51
0.0
 71
     0
 72
   100
 73
     1
 74
     1
 75
     0
 76
     0
 77
     0
 78
     0
281
     0
 65
     1
110
0.0
120
0.0
130
0.0
111
1.0
121
0.0
131
0.0
112
0.0
122
1.0
132
0.0
 79
     0
146
0.0
 60
     3
 61
     5
292
     1
282
     1
141
0.0
142
0.0
 63
   250
421
  3355443
  0
ENDTAB
  0
TABLE
  2
LTYPE
  5
5
330
0
100
AcDbSymbolTable
 70
     1
  0
LTYPE
  5
5B
330
5
100
AcDbSymbolTableRecord
100
AcDbLinetypeTableRecord
  2
ByBlock
 70
     0
  3

 72
    65
 73
     0
 40
0.0
  0
LTYPE
  5
5C
330
5
100
AcDbSymbolTableRecord
100
AcDbLinetypeTableRecord
  2
ByLayer
 70
     0
  3

 72
    65
 73
     0
 40
0.0
  0
LTYPE
  5
5D
330
5
100
AcDbSymbolTableRecord
100
AcDbLinetypeTableRecord
  2
Continuous
 70
     0
  3
Solid line
 72
    65
 73
     0
 40
0.0
  0
ENDTAB
  0
TABLE
  2
LAYER
  5
2
330
0
100
AcDbSymbolTable
 70
     2
  0
LAYER
  5
54
330
2
100
AcDbSymbolTableRecord
100
AcDbLayerTableRecord
  2
0
 70
     0
 62
     7
  6
Continuous
370
    -3
390
F
347
21
348
0
  0
LAYER
  5
78
330
2
100
AcDbSymbolTableRecord
100
AcDbLayerTableRecord
  2
Layer 1
 70
     0
 62
     7
  6
Continuous
370
     0
390
F
347
21
348
0
  0
ENDTAB
  0
TABLE
  2
STYLE
  5
3
330
0
100
AcDbSymbolTable
 70
     2
  0
STYLE
  5
55
330
3
100
AcDbSymbolTableRecord
100
AcDbTextStyleTableRecord
  2
Standard
 70
     0
 40
0.0
 41
1.0
 50
0.0
 71
     0
 42
0.2
  3
txt
  4

  0
STYLE
  5
5A
330
3
100
AcDbSymbolTableRecord
100
AcDbTextStyleTableRecord
  2
Annotative
 70
     0
 40
0.0
 41
1.0
 50
0.0
 71
     0
 42
0.2
  3
txt
  4

1001
AcadAnnotative
1000
AnnotativeData
1002
{
1070
     1
1070
     1
1002
}
  0
ENDTAB
  0
TABLE
  2
VIEW
  5
6
330
0
100
AcDbSymbolTable
 70
     0
  0
ENDTAB
  0
TABLE
  2
UCS
  5
7
330
0
100
AcDbSymbolTable
 70
     0
  0
ENDTAB
  0
TABLE
  2
APPID
  5
9
330
0
100
AcDbSymbolTable
 70
     2
  0
APPID
  5
56
330
9
100
AcDbSymbolTableRecord
100
AcDbRegAppTableRecord
  2
ACAD
 70
     0
  0
APPID
  5
5E
330
9
100
AcDbSymbolTableRecord
100
AcDbRegAppTableRecord
  2
AcadAnnotative
 70
     0
  0
ENDTAB
  0
TABLE
  2
DIMSTYLE
  5
A
330
0
100
AcDbSymbolTable
 70
     2
100
AcDbDimStyleTable
 71
     0
  0
DIMSTYLE
105
58
330
A
100
AcDbSymbolTableRecord
100
AcDbDimStyleTableRecord
  2
Standard
 70
     0
340
55
  0
DIMSTYLE
105
59
330
A
100
AcDbSymbolTableRecord
100
AcDbDimStyleTableRecord
  2
Annotative
 70
     0
340
55
1001
AcadAnnotative
1000
AnnotativeData
1002
{
1070
     1
1070
     1
1002
}
  0
ENDTAB
  0
TABLE
  2
BLOCK_RECORD
  5
1
330
0
100
AcDbSymbolTable
 70
     2
  0
BLOCK_RECORD
  5
70
330
1
100
AcDbSymbolTableRecord
100
AcDbBlockTableRecord
  2
*Model_Space
340
73
 70
     0
280
     1
281
     0
  0
BLOCK_RECORD
  5
6C
330
1
100
AcDbSymbolTableRecord
100
AcDbBlockTableRecord
  2
*Paper_Space
340
6F
 70
     0
280
     1
281
     0
  0
BLOCK_RECORD
  5
74
330
1
100
AcDbSymbolTableRecord
100
AcDbBlockTableRecord
  2
*Paper_Space0
340
77
 70
     0
280
     1
281
     0
  0
BLOCK_RECORD
  5
7B
330
1
100
AcDbSymbolTableRecord
100
AcDbBlockTableRecord
  2
Block_0
340
0
102
{BLKREFS
331
7C
102
}
 70
     0
280
     1
281
     0
  0
ENDTAB
  0
ENDSEC
  0
SECTION
  2
BLOCKS
  0
BLOCK
  5
71
330
70
100
AcDbEntity
  8
0
100
AcDbBlockBegin
  2
*Model_Space
 70
     0
 10
0.0
 20
0.0
 30
0.0
  3
*Model_Space
  1

  0
ENDBLK
  5
72
330
70
100
AcDbEntity
  8
0
100
AcDbBlockEnd
  0
BLOCK
  5
6D
330
6C
100
AcDbEntity
 67
     1
  8
0
100
AcDbBlockBegin
  2
*Paper_Space
 70
     0
 10
0.0
 20
0.0
 30
0.0
  3
*Paper_Space
  1

  0
ENDBLK
  5
6E
330
6C
100
AcDbEntity
 67
     1
  8
0
100
AcDbBlockEnd
  0
BLOCK
  5
75
330
74
100
AcDbEntity
 67
     1
  8
0
100
AcDbBlockBegin
  2
*Paper_Space0
 70
     0
 10
0.0
 20
0.0
 30
0.0
  3
*Paper_Space0
  1

  0
ENDBLK
  5
76
330
74
100
AcDbEntity
 67
     1
  8
0
100
AcDbBlockEnd
  0
BLOCK
  5
7D
330
7B
100
AcDbEntity
  8
0
100
AcDbBlockBegin
  2
Block_0
 70
     0
 10
0.0
 20
0.0
 30
0.0
  3
Block_0
  1

  0
LWPOLYLINE
  5
7F
330
7B
100
AcDbEntity
  8
Layer 1
100
AcDbPolyline
 90
        4
 70
     1
 43
0.0
 10
142.1806840329227
 20
-31.21857248161593
 10
139.5891755496839
 20
-31.68340198996327
 10
138.7262867898627
 20
-32.8640146809116
 10
141.919524263294
 20
-32.8640146809116
  0
LWPOLYLINE
  5
80
330
7B
100
AcDbEntity
  8
Layer 1
100
AcDbPolyline
 90
        3
 70
     1
 43
0.0
 10
170.6787076735304
 20
-30.42576988307282
 10
169.9196024152024
 20
-32.8640146809116
 10
171.4242909320788
 20
-32.8640146809116
  0
SPLINE
  5
81
330
7B
100
AcDbEntity
  8
Layer 1
 62
   250
420
  2301728
370
    35
100
AcDbSpline
210
0.0
220
0.0
230
1.0
 70
     9
 71
     3
 72
    44
 73
    40
 74
     0
 42
0.0000000001
 43
0.0000000001
 40
0.0
 40
0.0
 40
0.0
 40
0.0
 40
1.0
 40
1.0
 40
1.0
 40
2.0
 40
2.0
 40
2.0
 40
3.0
 40
3.0
 40
3.0
 40
4.0
 40
4.0
 40
4.0
 40
5.0
 40
5.0
 40
5.0
 40
6.0
 40
6.0
 40
6.0
 40
7.0
 40
7.0
 40
7.0
 40
8.0
 40
8.0
 40
8.0
 40
9.0
 40
9.0
 40
9.0
 40
10.0
 40
10.0
 40
10.0
 40
11.0
 40
11.0
 40
11.0
 40
12.0
 40
12.0
 40
12.0
 40
13.0
 40
13.0
 40
13.0
 40
13.0
 10
159.7585731954661
 20
-51.11033849498067
 30
0.0
 10
159.5665091221635
 20
-50.22518580558607
 30
0.0
 10
159.0125808318289
 20
-49.53138663855032
 30
0.0
 10
158.0972404932448
 20
-49.0295869492769
 30
0.0
 10
157.2450530612747
 20
-48.56238893778345
 30
0.0
 10
156.3856309287855
 20
-48.48963282750433
 30
0.0
 10
155.5197492422615
 20
-48.81131861843954
 30
0.0
 10
154.6535876417294
 20
-49.13285368644725
 30
0.0
 10
153.8640363520505
 20
-49.94387222736864
 30
0.0
 10
153.151073841378
 20
-51.24439577305045
 30
0.0
 10
152.3203751924972
 20
-52.75967795854402
 30
0.0
 10
151.9959979207141
 20
-53.96559056946216
 30
0.0
 10
152.1780927489563
 20
-54.86178909625635
 30
0.0
 10
152.3598861313436
 20
-55.75781536827626
 30
0.0
 10
152.9024671384237
 20
-56.45366006075637
 30
0.0
 10
153.8054266651077
 20
-56.94865568644643
 30
0.0
 10
154.0957405552803
 20
-57.10781909786497
 30
0.0
 10
154.3859037225255
 20
-57.22994773281708
 30
0.0
 10
154.6759376986899
 20
-57.31508465499632
 30
0.0
 10
154.5065897237431
 20
-56.7704365906251
 30
0.0
 10
154.1182198033216
 20
-56.13085461378847
 30
0.0
 10
153.5112801062077
 20
-55.39543438692154
 30
0.0
 10
153.5112801062077
 20
-55.39543438692154
 30
0.0
 10
155.0300073871865
 20
-54.22037691244317
 30
0.0
 10
155.0300073871865
 20
-54.22037691244317
 30
0.0
 10
155.3705766077502
 20
-54.49783629008648
 30
0.0
 10
155.6190110559303
 20
-54.74482810453211
 30
0.0
 10
155.7751600087993
 20
-54.96165380163502
 30
0.0
 10
155.931330493515
 20
-55.17847949873793
 30
0.0
 10
156.1979593522265
 20
-55.66962092385386
 30
0.0
 10
156.5749819893936
 20
-56.4345828445068
 30
0.0
 10
156.6645114083165
 20
-56.61527810270816
 30
0.0
 10
156.7653665786472
 20
-56.80611486074422
 30
0.0
 10
156.8769446086757
 20
-57.00674860906645
 30
0.0
 10
157.5537120849063
 20
-56.58138697587201
 30
0.0
 10
158.2260440006995
 20
-55.75915034277679
 30
0.0
 10
158.8939618879024
 20
-54.54081385626498
 30
0.0
 10
159.6623904358873
 20
-53.13909063070394
 30
0.0
 10
159.9504865458414
 20
-51.995814162077
 30
0.0
 10
159.7585731954661
 20
-51.11033849498067
 30
0.0
  0
SPLINE
  5
82
330
7B
100
AcDbEntity
  8
Layer 1
 62
   250
420
  2301728
370
    35
100
AcDbSpline
210
0.0
220
0.0
230
1.0
 70
    11
 71
     3
 72
    35
 73
    31
 74
     0
 42
0.0000000001
 43
0.0000000001
 40
0.0
 40
0.0
 40
0.0
 40
0.0
 40
1.0
 40
1.0
 40
1.0
 40
2.0
 40
2.0
 40
2.0
 40
3.0
 40
3.0
 40
3.0
 40
4.0
 40
4.0
 40
4.0
 40
5.0
 40
5.0
 40
5.0
 40
6.0
 40
6.0
 40
6.0
 40
7.0
 40
7.0
 40
7.0
 40
8.0
 40
8.0
 40
8.0
 40
9.0
 40
9.0
 40
9.0
 40
10.0
 40
10.0
 40
10.0
 40
10.0
 10
186.5995489713623
 20
-127.0154167705465
 30
0.0
 10
186.5995489713623
 20
-127.0154167705465
 30
0.0
 10
176.3214726325147
 20
-130.9868151867086
 30
0.0
 10
176.3214726325147
 20
-130.9868151867086
 30
0.0
 10
176.3214726325147
 20
-130.9868151867086
 30
0.0
 10
169.7189256031866
 20
-131.9429799067929
 30
0.0
 10
169.7189256031866
 20
-131.9429799067929
 30
0.0
 10
169.7189256031866
 20
-131.9429799067929
 30
0.0
 10
165.6557369241894
 20
-125.1456127277739
 30
0.0
 10
165.6557369241894
 20
-125.1456127277739
 30
0.0
 10
165.6557369241894
 20
-125.1456127277739
 30
0.0
 10
159.8161278219166
 20
-117.4112657041541
 30
0.0
 10
159.8161278219166
 20
-117.4112657041541
 30
0.0
 10
159.8161278219166
 20
-117.4112657041541
 30
0.0
 10
166.2699113218223
 20
-110.6685463522699
 30
0.0
 10
166.2699113218223
 20
-110.6685463522699
 30
0.0
 10
166.2699113218223
 20
-110.6685463522699
 30
0.0
 10
171.5250384431756
 20
-104.9537788976439
 30
0.0
 10
171.5250384431756
 20
-104.9537788976439
 30
0.0
 10
171.5250384431756
 20
-104.9537788976439
 30
0.0
 10
179.8056914833689
 20
-108.1297478299554
 30
0.0
 10
179.8056914833689
 20
-108.1297478299554
 30
0.0
 10
179.8056914833689
 20
-108.1297478299554
 30
0.0
 10
187.1295338480744
 20
-109.4382812226404
 30
0.0
 10
187.1295338480744
 20
-109.4382812226404
 30
0.0
 10
187.1295338480744
 20
-109.4382812226404
 30
0.0
 10
182.2441300678287
 20
-118.0875379479086
 30
0.0
 10
182.2441300678287
 20
-118.0875379479086
 30
0.0
 10
182.2441300678287
 20
-118.0875379479086
 30
0.0
 10
186.5995489713623
 20
-127.0154167705465
 30
0.0
 10
186.5995489713623
 20
-127.0154167705465
 30
0.0
  0
SPLINE
  5
83
330
7B
100
AcDbEntity
  8
Layer 1
 62
   250
420
  2301728
370
    35
100
AcDbSpline
210
0.0
220
0.0
230
1.0
 70
    11
 71
     3
 72
    17
 73
    13
 74
     0
 42
0.0000000001
 43
0.0000000001
 40
0.0
 40
0.0
 40
0.0
 40
0.0
 40
1.0
 40
1.0
 40
1.0
 40
2.0
 40
2.0
 40
2.0
 40
3.0
 40
3.0
 40
3.0
 40
4.0
 40
4.0
 40
4.0
 40
4.0
 10
180.2485154443042
 20
-160.5214680588279
 30
0.0
 10
180.2485154443042
 20
-160.5214680588279
 30
0.0
 10
169.3181964027117
 20
-160.5214680588279
 30
0.0
 10
169.3181964027117
 20
-160.5214680588279
 30
0.0
 10
169.3181964027117
 20
-160.5214680588279
 30
0.0
 10
169.3181964027117
 20
-143.2359598437483
 30
0.0
 10
169.3181964027117
 20
-143.2359598437483
 30
0.0
 10
169.3181964027117
 20
-143.2359598437483
 30
0.0
 10
180.2485154443042
 20
-143.2359598437483
 30
0.0
 10
180.2485154443042
 20
-143.2359598437483
 30
0.0
 10
180.2485154443042
 20
-143.2359598437483
 30
0.0
 10
180.2485154443042
 20
-160.5214680588279
 30
0.0
 10
180.2485154443042
 20
-160.5214680588279
 30
0.0
  0
SPLINE
  5
84
330
7B
100
AcDbEntity
  8
Layer 1
 62
   250
420
  2301728
370
    35
100
AcDbSpline
210
0.0
220
0.0
230
1.0
 70
     9
 71
     3
 72
    44
 73
    40
 74
     0
 42
0.0000000001
 43
0.0000000001
 40
0.0
 40
0.0
 40
0.0
 40
0.0
 40
1.0
 40
1.0
 40
1.0
 40
2.0
 40
2.0
 40
2.0
 40
3.0
 40
3.0
 40
3.0
 40
4.0
 40
4.0
 40
4.0
 40
5.0
 40
5.0
 40
5.0
 40
6.0
 40
6.0
 40
6.0
 40
7.0
 40
7.0
 40
7.0
 40
8.0
 40
8.0
 40
8.0
 40
9.0
 40
9.0
 40
9.0
 40
10.0
 40
10.0
 40
10.0
 40
11.0
 40
11.0
 40
11.0
 40
12.0
 40
12.0
 40
12.0
 40
13.0
 40
13.0
 40
13.0
 40
13.0
 10
156.6315246190452
 20
-63.04871400740406
 30
0.0
 10
156.2643205040112
 20
-62.32606216567933
 30
0.0
 10
156.0190512373082
 20
-61.79950085260568
 30
0.0
 10
155.8963412424929
 20
-61.46937457773162
 30
0.0
 10
154.724212099177
 20
-61.36074641071233
 30
0.0
 10
153.4248297413747
 20
-60.91516637338884
 30
0.0
 10
151.9980434461585
 20
-60.13300050715642
 30
0.0
 10
149.8891497767096
 20
-58.97686952600015
 30
0.0
 10
148.5265929804465
 20
-57.51565380777821
 30
0.0
 10
147.910588375837
 20
-55.74903037478887
 30
0.0
 10
147.1839100787639
 20
-53.65930004897666
 30
0.0
 10
147.4659772716187
 20
-51.43699814252269
 30
0.0
 10
148.7570698684097
 20
-49.08188780511235
 30
0.0
 10
150.0099219053143
 20
-46.7965406512783
 30
0.0
 10
151.6132262804561
 20
-45.36613700580256
 30
0.0
 10
153.5668753346009
 20
-44.7909783145401
 30
0.0
 10
155.5203521339715
 20
-44.21571196404372
 30
0.0
 10
157.6271572142824
 20
-44.54721627711189
 30
0.0
 10
159.8874197666145
 20
-45.78630946392235
 30
0.0
 10
162.1920809870127
 20
-47.04975516944416
 30
0.0
 10
163.6314634125969
 20
-48.64384391416283
 30
0.0
 10
164.2065144446254
 20
-50.56833884776374
 30
0.0
 10
164.781264030799
 20
-52.49266152659038
 30
0.0
 10
164.4369913325887
 20
-54.60700275327534
 30
0.0
 10
163.1737178818411
 20
-56.91138405966539
 30
0.0
 10
162.0487219511328
 20
-58.96349824914802
 30
0.0
 10
160.6438550759414
 20
-60.32786372054086
 30
0.0
 10
158.9586220237912
 20
-61.00538481140881
 30
0.0
 10
159.291245992892
 20
-61.67216151073214
 30
0.0
 10
159.5133685243035
 20
-62.0976092713137
 30
0.0
 10
159.6258724237437
 20
-62.28226638932309
 30
0.0
 10
159.7958878859408
 20
-62.55619454409402
 30
0.0
 10
160.0390039679655
 20
-62.89889541748926
 30
0.0
 10
160.3555436475196
 20
-63.31049820058948
 30
0.0
 10
160.3555436475196
 20
-63.31049820058948
 30
0.0
 10
157.8435092107561
 20
-65.06189861790336
 30
0.0
 10
157.8435092107561
 20
-65.06189861790336
 30
0.0
 10
157.4028814981927
 20
-64.44238432226831
 30
0.0
 10
156.9990301799342
 20
-63.77153810390304
 30
0.0
 10
156.6315246190452
 20
-63.04871400740406
 30
0.0
  0
SPLINE
  5
85
330
7B
100
AcDbEntity
  8
Layer 1
 62
   250
420
  2301728
370
    35
100
AcDbSpline
210
0.0
220
0.0
230
1.0
 70
    11
 71
     3
 72
    17
 73
    13
 74
     0
 42
0.0000000001
 43
0.0000000001
 40
0.0
 40
0.0
 40
0.0
 40
0.0
 40
1.0
 40
1.0
 40
1.0
 40
2.0
 40
2.0
 40
2.0
 40
3.0
 40
3.0
 40
3.0
 40
4.0
 40
4.0
 40
4.0
 40
4.0
 10
153.3197758609214
 20
-160.5214680588279
 30
0.0
 10
153.3197758609214
 20
-160.5214680588279
 30
0.0
 10
142.3894783511756
 20
-160.5214680588279
 30
0.0
 10
142.3894783511756
 20
-160.5214680588279
 30
0.0
 10
142.3894783511756
 20
-160.5214680588279
 30
0.0
 10
142.3894783511756
 20
-143.2359598437483
 30
0.0
 10
142.3894783511756
 20
-143.2359598437483
 30
0.0
 10
142.3894783511756
 20
-143.2359598437483
 30
0.0
 10
153.3197758609214
 20
-143.2359598437483
 30
0.0
 10
153.3197758609214
 20
-143.2359598437483
 30
0.0
 10
153.3197758609214
 20
-143.2359598437483
 30
0.0
 10
153.3197758609214
 20
-160.5214680588279
 30
0.0
 10
153.3197758609214
 20
-160.5214680588279
 30
0.0
  0
SPLINE
  5
86
330
7B
100
AcDbEntity
  8
Layer 1
 62
   250
420
  2301728
370
    35
100
AcDbSpline
210
0.0
220
0.0
230
1.0
 70
    11
 71
     3
 72
    17
 73
    13
 74
     0
 42
0.0000000001
 43
0.0000000001
 40
0.0
 40
0.0
 40
0.0
 40
0.0
 40
1.0
 40
1.0
 40
1.0
 40
2.0
 40
2.0
 40
2.0
 40
3.0
 40
3.0
 40
3.0
 40
4.0
 40
4.0
 40
4.0
 40
4.0
 10
141.8303608857663
 20
-109.8056145287552
 30
0.0
 10
141.8303608857663
 20
-109.8056145287552
 30
0.0
 10
152.7606583955121
 20
-109.8056145287552
 30
0.0
 10
152.7606583955121
 20
-109.8056145287552
 30
0.0
 10
152.7606583955121
 20
-109.8056145287552
 30
0.0
 10
152.7606583955121
 20
-127.0911442756816
 30
0.0
 10
152.7606583955121
 20
-127.0911442756816
 30
0.0
 10
152.7606583955121
 20
-127.0911442756816
 30
0.0
 10
141.8303608857663
 20
-127.0911442756816
 30
0.0
 10
141.8303608857663
 20
-127.0911442756816
 30
0.0
 10
141.8303608857663
 20
-127.0911442756816
 30
0.0
 10
141.8303608857663
 20
-109.8056145287552
 30
0.0
 10
141.8303608857663
 20
-109.8056145287552
 30
0.0
  0
SPLINE
  5
87
330
7B
100
AcDbEntity
  8
Layer 1
 62
   250
420
  2301728
370
    35
100
AcDbSpline
210
0.0
220
0.0
230
1.0
 70
    11
 71
     3
 72
    17
 73
    13
 74
     0
 42
0.0000000001
 43
0.0000000001
 40
0.0
 40
0.0
 40
0.0
 40
0.0
 40
1.0
 40
1.0
 40
1.0
 40
2.0
 40
2.0
 40
2.0
 40
3.0
 40
3.0
 40
3.0
 40
4.0
 40
4.0
 40
4.0
 40
4.0
 10
152.7606583955121
 20
-77.65128951780507
 30
0.0
 10
152.7606583955121
 20
-77.65128951780507
 30
0.0
 10
152.7606583955121
 20
-94.93681926473151
 30
0.0
 10
152.7606583955121
 20
-94.93681926473151
 30
0.0
 10
152.7606583955121
 20
-94.93681926473151
 30
0.0
 10
141.8303608857663
 20
-94.93681926473151
 30
0.0
 10
141.8303608857663
 20
-94.93681926473151
 30
0.0
 10
141.8303608857663
 20
-94.93681926473151
 30
0.0
 10
141.8303608857663
 20
-77.65128951780507
 30
0.0
 10
141.8303608857663
 20
-77.65128951780507
 30
0.0
 10
141.8303608857663
 20
-77.65128951780507
 30
0.0
 10
152.7606583955121
 20
-77.65128951780507
 30
0.0
 10
152.7606583955121
 20
-77.65128951780507
 30
0.0
  0
SPLINE
  5
88
330
7B
100
AcDbEntity
  8
Layer 1
 62
   250
420
  2301728
370
    35
100
AcDbSpline
210
0.0
220
0.0
230
1.0
 70
    11
 71
     3
 72
    41
 73
    37
 74
     0
 42
0.0000000001
 43
0.0000000001
 40
0.0
 40
0.0
 40
0.0
 40
0.0
 40
1.0
 40
1.0
 40
1.0
 40
2.0
 40
2.0
 40
2.0
 40
3.0
 40
3.0
 40
3.0
 40
4.0
 40
4.0
 40
4.0
 40
5.0
 40
5.0
 40
5.0
 40
6.0
 40
6.0
 40
6.0
 40
7.0
 40
7.0
 40
7.0
 40
8.0
 40
8.0
 40
8.0
 40
9.0
 40
9.0
 40
9.0
 40
10.0
 40
10.0
 40
10.0
 40
11.0
 40
11.0
 40
11.0
 40
12.0
 40
12.0
 40
12.0
 40
12.0
 10
135.2774878269662
 20
-49.06401637228261
 30
0.0
 10
135.2774878269662
 20
-49.06401637228261
 30
0.0
 10
135.2774878269662
 20
-55.46844887936206
 30
0.0
 10
135.2774878269662
 20
-55.46844887936206
 30
0.0
 10
135.2774878269662
 20
-55.46844887936206
 30
0.0
 10
130.3851077283629
 20
-55.46844887936206
 30
0.0
 10
130.3851077283629
 20
-55.46844887936206
 30
0.0
 10
130.3851077283629
 20
-55.46844887936206
 30
0.0
 10
130.3851077283629
 20
-39.63582355779938
 30
0.0
 10
130.3851077283629
 20
-39.63582355779938
 30
0.0
 10
130.3851077283629
 20
-39.63582355779938
 30
0.0
 10
135.2774878269662
 20
-39.63582355779938
 30
0.0
 10
135.2774878269662
 20
-39.63582355779938
 30
0.0
 10
135.2774878269662
 20
-39.63582355779938
 30
0.0
 10
135.2774878269662
 20
-45.17622611717817
 30
0.0
 10
135.2774878269662
 20
-45.17622611717817
 30
0.0
 10
135.2774878269662
 20
-45.17622611717817
 30
0.0
 10
140.6235870009769
 20
-45.17622611717817
 30
0.0
 10
140.6235870009769
 20
-45.17622611717817
 30
0.0
 10
140.6235870009769
 20
-45.17622611717817
 30
0.0
 10
140.6235870009769
 20
-39.63582355779938
 30
0.0
 10
140.6235870009769
 20
-39.63582355779938
 30
0.0
 10
140.6235870009769
 20
-39.63582355779938
 30
0.0
 10
145.5373266915887
 20
-39.63582355779938
 30
0.0
 10
145.5373266915887
 20
-39.63582355779938
 30
0.0
 10
145.5373266915887
 20
-39.63582355779938
 30
0.0
 10
145.5373266915887
 20
-55.46844887936206
 30
0.0
 10
145.5373266915887
 20
-55.46844887936206
 30
0.0
 10
145.5373266915887
 20
-55.46844887936206
 30
0.0
 10
140.6235870009769
 20
-55.46844887936206
 30
0.0
 10
140.6235870009769
 20
-55.46844887936206
 30
0.0
 10
140.6235870009769
 20
-55.46844887936206
 30
0.0
 10
140.6235870009769
 20
-49.06401637228261
 30
0.0
 10
140.6235870009769
 20
-49.06401637228261
 30
0.0
 10
140.6235870009769
 20
-49.06401637228261
 30
0.0
 10
135.2774878269662
 20
-49.06401637228261
 30
0.0
 10
135.2774878269662
 20
-49.06401637228261
 30
0.0
  0
SPLINE
  5
89
330
7B
100
AcDbEntity
  8
Layer 1
 62
   250
420
  2301728
370
    35
100
AcDbSpline
210
0.0
220
0.0
230
1.0
 70
    11
 71
     3
 72
    17
 73
    13
 74
     0
 42
0.0000000001
 43
0.0000000001
 40
0.0
 40
0.0
 40
0.0
 40
0.0
 40
1.0
 40
1.0
 40
1.0
 40
2.0
 40
2.0
 40
2.0
 40
3.0
 40
3.0
 40
3.0
 40
4.0
 40
4.0
 40
4.0
 40
4.0
 10
139.5891755496839
 20
-31.68340198996327
 30
0.0
 10
139.5891755496839
 20
-31.68340198996327
 30
0.0
 10
142.1806840329227
 20
-31.21857248161593
 30
0.0
 10
142.1806840329227
 20
-31.21857248161593
 30
0.0
 10
142.1806840329227
 20
-31.21857248161593
 30
0.0
 10
141.919524263294
 20
-32.8640146809116
 30
0.0
 10
141.919524263294
 20
-32.8640146809116
 30
0.0
 10
141.919524263294
 20
-32.8640146809116
 30
0.0
 10
138.7262867898627
 20
-32.8640146809116
 30
0.0
 10
138.7262867898627
 20
-32.8640146809116
 30
0.0
 10
138.7262867898627
 20
-32.8640146809116
 30
0.0
 10
139.5891755496839
 20
-31.68340198996327
 30
0.0
 10
139.5891755496839
 20
-31.68340198996327
 30
0.0
  0
SPLINE
  5
8A
330
7B
100
AcDbEntity
  8
Layer 1
 62
   250
420
  2301728
370
    35
100
AcDbSpline
210
0.0
220
0.0
230
1.0
 70
    11
 71
     3
 72
    17
 73
    13
 74
     0
 42
0.0000000001
 43
0.0000000001
 40
0.0
 40
0.0
 40
0.0
 40
0.0
 40
1.0
 40
1.0
 40
1.0
 40
2.0
 40
2.0
 40
2.0
 40
3.0
 40
3.0
 40
3.0
 40
4.0
 40
4.0
 40
4.0
 40
4.0
 10
124.8598420572724
 20
-160.5214680588279
 30
0.0
 10
124.8598420572724
 20
-160.5214680588279
 30
0.0
 10
113.9295230156799
 20
-160.5214680588279
 30
0.0
 10
113.9295230156799
 20
-160.5214680588279
 30
0.0
 10
113.9295230156799
 20
-160.5214680588279
 30
0.0
 10
113.9295230156799
 20
-143.2359598437483
 30
0.0
 10
113.9295230156799
 20
-143.2359598437483
 30
0.0
 10
113.9295230156799
 20
-143.2359598437483
 30
0.0
 10
124.8598420572724
 20
-143.2359598437483
 30
0.0
 10
124.8598420572724
 20
-143.2359598437483
 30
0.0
 10
124.8598420572724
 20
-143.2359598437483
 30
0.0
 10
124.8598420572724
 20
-160.5214680588279
 30
0.0
 10
124.8598420572724
 20
-160.5214680588279
 30
0.0
  0
SPLINE
  5
8B
330
7B
100
AcDbEntity
  8
Layer 1
 62
   250
420
  2301728
370
    35
100
AcDbSpline
210
0.0
220
0.0
230
1.0
 70
    11
 71
     3
 72
    17
 73
    13
 74
     0
 42
0.0000000001
 43
0.0000000001
 40
0.0
 40
0.0
 40
0.0
 40
0.0
 40
1.0
 40
1.0
 40
1.0
 40
2.0
 40
2.0
 40
2.0
 40
3.0
 40
3.0
 40
3.0
 40
4.0
 40
4.0
 40
4.0
 40
4.0
 10
113.3704055502707
 20
-94.93681926473151
 30
0.0
 10
113.3704055502707
 20
-94.93681926473151
 30
0.0
 10
113.3704055502707
 20
-77.65128951780507
 30
0.0
 10
113.3704055502707
 20
-77.65128951780507
 30
0.0
 10
113.3704055502707
 20
-77.65128951780507
 30
0.0
 10
124.3007030600164
 20
-77.65128951780507
 30
0.0
 10
124.3007030600164
 20
-77.65128951780507
 30
0.0
 10
124.3007030600164
 20
-77.65128951780507
 30
0.0
 10
124.3007030600164
 20
-94.93681926473151
 30
0.0
 10
124.3007030600164
 20
-94.93681926473151
 30
0.0
 10
124.3007030600164
 20
-94.93681926473151
 30
0.0
 10
113.3704055502707
 20
-94.93681926473151
 30
0.0
 10
113.3704055502707
 20
-94.93681926473151
 30
0.0
  0
SPLINE
  5
8C
330
7B
100
AcDbEntity
  8
Layer 1
 62
   250
420
  2301728
370
    35
100
AcDbSpline
210
0.0
220
0.0
230
1.0
 70
    11
 71
     3
 72
    14
 73
    10
 74
     0
 42
0.0000000001
 43
0.0000000001
 40
0.0
 40
0.0
 40
0.0
 40
0.0
 40
1.0
 40
1.0
 40
1.0
 40
2.0
 40
2.0
 40
2.0
 40
3.0
 40
3.0
 40
3.0
 40
3.0
 10
170.6787076735304
 20
-30.42576988307282
 30
0.0
 10
170.6787076735304
 20
-30.42576988307282
 30
0.0
 10
171.4242909320788
 20
-32.8640146809116
 30
0.0
 10
171.4242909320788
 20
-32.8640146809116
 30
0.0
 10
171.4242909320788
 20
-32.8640146809116
 30
0.0
 10
169.9196024152024
 20
-32.8640146809116
 30
0.0
 10
169.9196024152024
 20
-32.8640146809116
 30
0.0
 10
169.9196024152024
 20
-32.8640146809116
 30
0.0
 10
170.6787076735304
 20
-30.42576988307282
 30
0.0
 10
170.6787076735304
 20
-30.42576988307282
 30
0.0
  0
SPLINE
  5
8D
330
7B
100
AcDbEntity
  8
Layer 1
 62
   250
420
  2301728
370
    35
100
AcDbSpline
210
0.0
220
0.0
230
1.0
 70
    11
 71
     3
 72
   233
 73
   229
 74
     0
 42
0.0000000001
 43
0.0000000001
 40
0.0
 40
0.0
 40
0.0
 40
0.0
 40
1.0
 40
1.0
 40
1.0
 40
2.0
 40
2.0
 40
2.0
 40
3.0
 40
3.0
 40
3.0
 40
4.0
 40
4.0
 40
4.0
 40
5.0
 40
5.0
 40
5.0
 40
6.0
 40
6.0
 40
6.0
 40
7.0
 40
7.0
 40
7.0
 40
8.0
 40
8.0
 40
8.0
 40
9.0
 40
9.0
 40
9.0
 40
10.0
 40
10.0
 40
10.0
 40
11.0
 40
11.0
 40
11.0
 40
12.0
 40
12.0
 40
12.0
 40
13.0
 40
13.0
 40
13.0
 40
14.0
 40
14.0
 40
14.0
 40
15.0
 40
15.0
 40
15.0
 40
16.0
 40
16.0
 40
16.0
 40
17.0
 40
17.0
 40
17.0
 40
18.0
 40
18.0
 40
18.0
 40
19.0
 40
19.0
 40
19.0
 40
20.0
 40
20.0
 40
20.0
 40
21.0
 40
21.0
 40
21.0
 40
22.0
 40
22.0
 40
22.0
 40
23.0
 40
23.0
 40
23.0
 40
24.0
 40
24.0
 40
24.0
 40
25.0
 40
25.0
 40
25.0
 40
26.0
 40
26.0
 40
26.0
 40
27.0
 40
27.0
 40
27.0
 40
28.0
 40
28.0
 40
28.0
 40
29.0
 40
29.0
 40
29.0
 40
30.0
 40
30.0
 40
30.0
 40
31.0
 40
31.0
 40
31.0
 40
32.0
 40
32.0
 40
32.0
 40
33.0
 40
33.0
 40
33.0
 40
34.0
 40
34.0
 40
34.0
 40
35.0
 40
35.0
 40
35.0
 40
36.0
 40
36.0
 40
36.0
 40
37.0
 40
37.0
 40
37.0
 40
38.0
 40
38.0
 40
38.0
 40
39.0
 40
39.0
 40
39.0
 40
40.0
 40
40.0
 40
40.0
 40
41.0
 40
41.0
 40
41.0
 40
42.0
 40
42.0
 40
42.0
 40
43.0
 40
43.0
 40
43.0
 40
44.0
 40
44.0
 40
44.0
 40
45.0
 40
45.0
 40
45.0
 40
46.0
 40
46.0
 40
46.0
 40
47.0
 40
47.0
 40
47.0
 40
48.0
 40
48.0
 40
48.0
 40
49.0
 40
49.0
 40
49.0
 40
50.0
 40
50.0
 40
50.0
 40
51.0
 40
51.0
 40
51.0
 40
52.0
 40
52.0
 40
52.0
 40
53.0
 40
53.0
 40
53.0
 40
54.0
 40
54.0
 40
54.0
 40
55.0
 40
55.0
 40
55.0
 40
56.0
 40
56.0
 40
56.0
 40
57.0
 40
57.0
 40
57.0
 40
58.0
 40
58.0
 40
58.0
 40
59.0
 40
59.0
 40
59.0
 40
60.0
 40
60.0
 40
60.0
 40
61.0
 40
61.0
 40
61.0
 40
62.0
 40
62.0
 40
62.0
 40
63.0
 40
63.0
 40
63.0
 40
64.0
 40
64.0
 40
64.0
 40
65.0
 40
65.0
 40
65.0
 40
66.0
 40
66.0
 40
66.0
 40
67.0
 40
67.0
 40
67.0
 40
68.0
 40
68.0
 40
68.0
 40
69.0
 40
69.0
 40
69.0
 40
70.0
 40
70.0
 40
70.0
 40
71.0
 40
71.0
 40
71.0
 40
72.0
 40
72.0
 40
72.0
 40
73.0
 40
73.0
 40
73.0
 40
74.0
 40
74.0
 40
74.0
 40
75.0
 40
75.0
 40
75.0
 40
76.0
 40
76.0
 40
76.0
 40
76.0
 10
179.6893764470481
 20
-90.13209531438105
 30
0.0
 10
179.6893764470481
 20
-90.13209531438105
 30
0.0
 10
179.6893764470481
 20
-94.93681926473151
 30
0.0
 10
179.6893764470481
 20
-94.93681926473151
 30
0.0
 10
179.6893764470481
 20
-94.93681926473151
 30
0.0
 10
168.7590789373024
 20
-94.93681926473151
 30
0.0
 10
168.7590789373024
 20
-94.93681926473151
 30
0.0
 10
168.7590789373024
 20
-94.93681926473151
 30
0.0
 10
168.7590789373024
 20
-83.23643525479853
 30
0.0
 10
168.7590789373024
 20
-83.23643525479853
 30
0.0
 10
168.7590789373024
 20
-83.23643525479853
 30
0.0
 10
163.3867970376038
 20
-80.11080778026528
 30
0.0
 10
163.3867970376038
 20
-80.11080778026528
 30
0.0
 10
163.3867970376038
 20
-80.11080778026528
 30
0.0
 10
168.510773680203
 20
-66.7557444087668
 30
0.0
 10
168.510773680203
 20
-66.7557444087668
 30
0.0
 10
168.510773680203
 20
-66.7557444087668
 30
0.0
 10
172.5500620092713
 20
-55.56400721538417
 30
0.0
 10
172.5500620092713
 20
-55.56400721538417
 30
0.0
 10
172.5500620092713
 20
-55.56400721538417
 30
0.0
 10
186.1356238005798
 20
-55.14387782095795
 30
0.0
 10
186.1356238005798
 20
-55.14387782095795
 30
0.0
 10
186.1356238005798
 20
-55.14387782095795
 30
0.0
 10
194.7178303549664
 20
-53.22153607203532
 30
0.0
 10
194.7178303549664
 20
-53.22153607203532
 30
0.0
 10
194.7178303549664
 20
-53.22153607203532
 30
0.0
 10
194.7178303549664
 20
-32.8640146809116
 30
0.0
 10
194.7178303549664
 20
-32.8640146809116
 30
0.0
 10
194.7178303549664
 20
-32.8640146809116
 30
0.0
 10
186.0123970414418
 20
-32.8640146809116
 30
0.0
 10
186.0123970414418
 20
-32.8640146809116
 30
0.0
 10
186.0123970414418
 20
-32.8640146809116
 30
0.0
 10
187.4690264762989
 20
-26.43040652144144
 30
0.0
 10
187.4690264762989
 20
-26.43040652144144
 30
0.0
 10
187.4690264762989
 20
-26.43040652144144
 30
0.0
 10
184.0293570164384
 20
-25.65162115515394
 30
0.0
 10
184.0293570164384
 20
-25.65162115515394
 30
0.0
 10
184.0293570164384
 20
-25.65162115515394
 30
0.0
 10
182.3964032882768
 20
-32.8640146809116
 30
0.0
 10
182.3964032882768
 20
-32.8640146809116
 30
0.0
 10
182.3964032882768
 20
-32.8640146809116
 30
0.0
 10
177.8601599354612
 20
-32.8640146809116
 30
0.0
 10
177.8601599354612
 20
-32.8640146809116
 30
0.0
 10
177.8601599354612
 20
-32.8640146809116
 30
0.0
 10
179.4440856484984
 20
-27.77651298676247
 30
0.0
 10
179.4440856484984
 20
-27.77651298676247
 30
0.0
 10
179.4440856484984
 20
-27.77651298676247
 30
0.0
 10
176.2770739644485
 20
-26.79052665888397
 30
0.0
 10
176.2770739644485
 20
-26.79052665888397
 30
0.0
 10
176.2770739644485
 20
-26.79052665888397
 30
0.0
 10
174.4042769949731
 20
-32.80594329013836
 30
0.0
 10
174.4042769949731
 20
-32.80594329013836
 30
0.0
 10
174.4042769949731
 20
-32.80594329013836
 30
0.0
 10
172.1831378082454
 20
-25.51594898857544
 30
0.0
 10
172.1831378082454
 20
-25.51594898857544
 30
0.0
 10
172.1831378082454
 20
-25.51594898857544
 30
0.0
 10
169.045732413522
 20
-24.5391567592732
 30
0.0
 10
169.045732413522
 20
-24.5391567592732
 30
0.0
 10
169.045732413522
 20
-24.5391567592732
 30
0.0
 10
166.4539224844282
 20
-32.8640146809116
 30
0.0
 10
166.4539224844282
 20
-32.8640146809116
 30
0.0
 10
166.4539224844282
 20
-32.8640146809116
 30
0.0
 10
163.3192516342461
 20
-32.8640146809116
 30
0.0
 10
163.3192516342461
 20
-32.8640146809116
 30
0.0
 10
163.4969754975915
 20
-32.30838537468115
 30
0.0
 10
163.5899715438464
 20
-31.72239616448694
 30
0.0
 10
163.5899715438464
 20
-31.10309718731971
 30
0.0
 10
163.5899715438464
 20
-31.10309718731971
 30
0.0
 10
163.5899715438464
 20
-24.31849839344295
 30
0.0
 10
163.5899715438464
 20
-24.31849839344295
 30
0.0
 10
163.5899715438464
 20
-24.31849839344295
 30
0.0
 10
160.0790747348283
 20
-24.31849839344295
 30
0.0
 10
160.0790747348283
 20
-24.31849839344295
 30
0.0
 10
160.0790747348283
 20
-24.31849839344295
 30
0.0
 10
160.0790747348283
 20
-31.26467216557793
 30
0.0
 10
160.0790747348283
 20
-31.26467216557793
 30
0.0
 10
160.0790747348283
 20
-31.89598591324996
 30
0.0
 10
159.9068199605658
 20
-32.38363917918708
 30
0.0
 10
159.5623104120408
 20
-32.72780421816353
 30
0.0
 10
159.5103540657539
 20
-32.77969596891011
 30
0.0
 10
159.4495481304393
 20
-32.81996052239397
 30
0.0
 10
159.3916489944403
 20
-32.8640146809116
 30
0.0
 10
159.3916489944403
 20
-32.8640146809116
 30
0.0
 10
156.8818323378954
 20
-32.8640146809116
 30
0.0
 10
156.8818323378954
 20
-32.8640146809116
 30
0.0
 10
156.8211771255082
 20
-32.81778580586891
 30
0.0
 10
156.7579811552007
 20
-32.77489436707754
 30
0.0
 10
156.703914687929
 20
-32.72005275332173
 30
0.0
 10
156.3594051394041
 20
-32.37072007111739
 30
0.0
 10
156.1871503651415
 20
-31.88565062679421
 30
0.0
 10
156.1871503651415
 20
-31.26467216557793
 30
0.0
 10
156.1871503651415
 20
-31.26467216557793
 30
0.0
 10
156.1871503651415
 20
-24.31849839344295
 30
0.0
 10
156.1871503651415
 20
-24.31849839344295
 30
0.0
 10
156.1871503651415
 20
-24.31849839344295
 30
0.0
 10
152.6759090465749
 20
-24.31849839344295
 30
0.0
 10
152.6759090465749
 20
-24.31849839344295
 30
0.0
 10
152.6759090465749
 20
-24.31849839344295
 30
0.0
 10
152.6759090465749
 20
-31.10309718731971
 30
0.0
 10
152.6759090465749
 20
-31.10309718731971
 30
0.0
 10
152.6759090465749
 20
-31.618591131147
 30
0.0
 10
152.7728669526379
 20
-32.2077455228183
 30
0.0
 10
152.9577824528087
 20
-32.8640146809116
 30
0.0
 10
152.9577824528087
 20
-32.8640146809116
 30
0.0
 10
145.3540476117734
 20
-32.8640146809116
 30
0.0
 10
145.3540476117734
 20
-32.8640146809116
 30
0.0
 10
145.3540476117734
 20
-32.8640146809116
 30
0.0
 10
145.5320729209737
 20
-30.6875971399518
 30
0.0
 10
145.5320729209737
 20
-30.6875971399518
 30
0.0
 10
145.5320729209737
 20
-30.6875971399518
 30
0.0
 10
151.4234230510656
 20
-29.66954989221369
 30
0.0
 10
151.4234230510656
 20
-29.66954989221369
 30
0.0
 10
151.4234230510656
 20
-29.66954989221369
 30
0.0
 10
147.6450361094646
 20
-26.90800441493099
 30
0.0
 10
147.6450361094646
 20
-26.90800441493099
 30
0.0
 10
147.6450361094646
 20
-26.90800441493099
 30
0.0
 10
142.1297396834346
 20
-28.20732217719296
 30
0.0
 10
142.1297396834346
 20
-28.20732217719296
 30
0.0
 10
142.1297396834346
 20
-28.20732217719296
 30
0.0
 10
144.6690765019187
 20
-24.73294338031851
 30
0.0
 10
144.6690765019187
 20
-24.73294338031851
 30
0.0
 10
144.6690765019187
 20
-24.73294338031851
 30
0.0
 10
141.8281431055477
 20
-22.65658433135842
 30
0.0
 10
141.8281431055477
 20
-22.65658433135842
 30
0.0
 10
141.8281431055477
 20
-22.65658433135842
 30
0.0
 10
135.1085489571083
 20
-31.85051065284467
 30
0.0
 10
135.1085489571083
 20
-31.85051065284467
 30
0.0
 10
135.1085489571083
 20
-31.85051065284467
 30
0.0
 10
136.4952429536149
 20
-32.8640146809116
 30
0.0
 10
136.4952429536149
 20
-32.8640146809116
 30
0.0
 10
136.4952429536149
 20
-32.8640146809116
 30
0.0
 10
126.4164869204358
 20
-32.8640146809116
 30
0.0
 10
126.4164869204358
 20
-32.8640146809116
 30
0.0
 10
126.4164869204358
 20
-32.8640146809116
 30
0.0
 10
126.4164869204358
 20
-31.74382035203584
 30
0.0
 10
126.4164869204358
 20
-31.74382035203584
 30
0.0
 10
126.4164869204358
 20
-31.74382035203584
 30
0.0
 10
131.8928107037889
 20
-31.74382035203584
 30
0.0
 10
131.8928107037889
 20
-31.74382035203584
 30
0.0
 10
131.8928107037889
 20
-31.74382035203584
 30
0.0
 10
131.8928107037889
 20
-29.4211369758804
 30
0.0
 10
131.8928107037889
 20
-29.4211369758804
 30
0.0
 10
131.8928107037889
 20
-29.4211369758804
 30
0.0
 10
126.4164869204358
 20
-29.4211369758804
 30
0.0
 10
126.4164869204358
 20
-29.4211369758804
 30
0.0
 10
126.4164869204358
 20
-29.4211369758804
 30
0.0
 10
126.4164869204358
 20
-27.61125606270439
 30
0.0
 10
126.4164869204358
 20
-27.61125606270439
 30
0.0
 10
126.4164869204358
 20
-27.61125606270439
 30
0.0
 10
132.3200025439599
 20
-27.61125606270439
 30
0.0
 10
132.3200025439599
 20
-27.61125606270439
 30
0.0
 10
132.3200025439599
 20
-27.61125606270439
 30
0.0
 10
132.3200025439599
 20
-25.17987992398932
 30
0.0
 10
132.3200025439599
 20
-25.17987992398932
 30
0.0
 10
132.3200025439599
 20
-25.17987992398932
 30
0.0
 10
122.8897426721855
 20
-25.17987992398932
 30
0.0
 10
122.8897426721855
 20
-25.17987992398932
 30
0.0
 10
122.8897426721855
 20
-25.17987992398932
 30
0.0
 10
122.8897426721855
 20
-32.8640146809116
 30
0.0
 10
122.8897426721855
 20
-32.8640146809116
 30
0.0
 10
122.8897426721855
 20
-32.8640146809116
 30
0.0
 10
117.0422744458371
 20
-32.8640146809116
 30
0.0
 10
117.0422744458371
 20
-32.8640146809116
 30
0.0
 10
117.0422744458371
 20
-32.8640146809116
 30
0.0
 10
114.2622331121679
 20
-26.63495906587816
 30
0.0
 10
114.2622331121679
 20
-26.63495906587816
 30
0.0
 10
114.2622331121679
 20
-26.63495906587816
 30
0.0
 10
117.5394232562054
 20
-25.17234377761534
 30
0.0
 10
117.5394232562054
 20
-25.17234377761534
 30
0.0
 10
117.5394232562054
 20
-25.17234377761534
 30
0.0
 10
116.3934337748838
 20
-22.60458492137793
 30
0.0
 10
116.3934337748838
 20
-22.60458492137793
 30
0.0
 10
116.3934337748838
 20
-22.60458492137793
 30
0.0
 10
106.6255760774017
 20
-26.9639872165663
 30
0.0
 10
106.6255760774017
 20
-26.9639872165663
 30
0.0
 10
106.6255760774017
 20
-26.9639872165663
 30
0.0
 10
107.7715655587233
 20
-29.5317460728037
 30
0.0
 10
107.7715655587233
 20
-29.5317460728037
 30
0.0
 10
107.7715655587233
 20
-29.5317460728037
 30
0.0
 10
111.0489064256883
 20
-28.06906618900053
 30
0.0
 10
111.0489064256883
 20
-28.06906618900053
 30
0.0
 10
111.0489064256883
 20
-28.06906618900053
 30
0.0
 10
113.1888920818916
 20
-32.8640146809116
 30
0.0
 10
113.1888920818916
 20
-32.8640146809116
 30
0.0
 10
113.1888920818916
 20
-32.8640146809116
 30
0.0
 10
100.1433705397428
 20
-32.8640146809116
 30
0.0
 10
100.1433705397428
 20
-32.8640146809116
 30
0.0
 10
100.1433705397428
 20
-32.8640146809116
 30
0.0
 10
100.1433705397428
 20
-96.46497749460122
 30
0.0
 10
100.1433705397428
 20
-96.46497749460122
 30
0.0
 10
100.1433705397428
 20
-96.46497749460122
 30
0.0
 10
113.5672712254059
 20
-95.81292857847733
 30
0.0
 10
113.5672712254059
 20
-95.81292857847733
 30
0.0
 10
113.5672712254059
 20
-95.81292857847733
 30
0.0
 10
116.536771278917
 20
-109.8056145287552
 30
0.0
 10
116.536771278917
 20
-109.8056145287552
 30
0.0
 10
116.536771278917
 20
-109.8056145287552
 30
0.0
 10
124.3007030600164
 20
-109.8056145287552
 30
0.0
 10
124.3007030600164
 20
-109.8056145287552
 30
0.0
 10
124.3007030600164
 20
-109.8056145287552
 30
0.0
 10
124.3007030600164
 20
-127.0911442756816
 30
0.0
 10
124.3007030600164
 20
-127.0911442756816
 30
0.0
 10
124.3007030600164
 20
-127.0911442756816
 30
0.0
 10
113.3704055502707
 20
-127.0911442756816
 30
0.0
 10
113.3704055502707
 20
-127.0911442756816
 30
0.0
 10
113.3704055502707
 20
-127.0911442756816
 30
0.0
 10
113.3704055502707
 20
-125.4631644041268
 30
0.0
 10
113.3704055502707
 20
-125.4631644041268
 30
0.0
 10
113.3704055502707
 20
-125.4631644041268
 30
0.0
 10
108.070104614367
 20
-129.1391889461223
 30
0.0
 10
108.070104614367
 20
-129.1391889461223
 30
0.0
 10
108.070104614367
 20
-129.1391889461223
 30
0.0
 10
100.1433705397428
 20
-137.2328594288537
 30
0.0
 10
100.1433705397428
 20
-137.2328594288537
 30
0.0
 10
100.1433705397428
 20
-137.2328594288537
 30
0.0
 10
100.1433705397428
 20
-190.512983655985
 30
0.0
 10
100.1433705397428
 20
-190.512983655985
 30
0.0
 10
100.1433705397428
 20
-190.512983655985
 30
0.0
 10
194.7178303549664
 20
-190.512983655985
 30
0.0
 10
194.7178303549664
 20
-190.512983655985
 30
0.0
 10
194.7178303549664
 20
-190.512983655985
 30
0.0
 10
194.7178303549664
 20
-89.53846229857893
 30
0.0
 10
194.7178303549664
 20
-89.53846229857893
 30
0.0
 10
194.7178303549664
 20
-89.53846229857893
 30
0.0
 10
185.9964204111289
 20
-94.77789270362759
 30
0.0
 10
185.9964204111289
 20
-94.77789270362759
 30
0.0
 10
185.9964204111289
 20
-94.77789270362759
 30
0.0
 10
179.6893764470481
 20
-90.13209531438105
 30
0.0
 10
179.6893764470481
 20
-90.13209531438105
 30
0.0
  0
LWPOLYLINE
  5
8E
330
7B
100
AcDbEntity
  8
Layer 1
100
AcDbPolyline
 90
       12
 70
     1
 43
0.0
 10
145.5373266915887
 20
-55.46844887936206
 10
145.5373266915887
 20
-39.63582355779938
 10
140.6235870009769
 20
-39.63582355779938
 10
140.6235870009769
 20
-45.17622611717817
 10
135.2774878269662
 20
-45.17622611717817
 10
135.2774878269662
 20
-39.63582355779938
 10
130.3851077283629
 20
-39.63582355779938
 10
130.3851077283629
 20
-55.46844887936206
 10
135.2774878269662
 20
-55.46844887936206
 10
135.2774878269662
 20
-49.06401637228261
 10
140.6235870009769
 20
-49.06401637228261
 10
140.6235870009769
 20
-55.46844887936206
  0
HATCH
  5
8F
330
7B
100
AcDbEntity
  8
Layer 1
 62
    18
420
        0
440
 33554687
100
AcDbHatch
 10
0.0
 20
0.0
 30
0.0
210
0.0
220
0.0
230
1.0
  2
SOLID
 70
     1
 71
     1
 91
        1
 92
        1
 93
       12
 72
     1
 10
145.5373266915887
 20
-55.46844887936206
 11
145.5373266915887
 21
-39.63582355779938
 72
     1
 10
145.5373266915887
 20
-39.63582355779938
 11
140.6235870009769
 21
-39.63582355779938
 72
     1
 10
140.6235870009769
 20
-39.63582355779938
 11
140.6235870009769
 21
-45.17622611717817
 72
     1
 10
140.6235870009769
 20
-45.17622611717817
 11
135.2774878269662
 21
-45.17622611717817
 72
     1
 10
135.2774878269662
 20
-45.17622611717817
 11
135.2774878269662
 21
-39.63582355779938
 72
     1
 10
135.2774878269662
 20
-39.63582355779938
 11
130.3851077283629
 21
-39.63582355779938
 72
     1
 10
130.3851077283629
 20
-39.63582355779938
 11
130.3851077283629
 21
-55.46844887936206
 72
     1
 10
130.3851077283629
 20
-55.46844887936206
 11
135.2774878269662
 21
-55.46844887936206
 72
     1
 10
135.2774878269662
 20
-55.46844887936206
 11
135.2774878269662
 21
-49.06401637228261
 72
     1
 10
135.2774878269662
 20
-49.06401637228261
 11
140.6235870009769
 21
-49.06401637228261
 72
     1
 10
140.6235870009769
 20
-49.06401637228261
 11
140.6235870009769
 21
-55.46844887936206
 72
     1
 10
140.6235870009769
 20
-55.46844887936206
 11
145.5373266915887
 21
-55.46844887936206
 97
        1
330
8E
 75
     2
 76
     1
 98
        1
 10
0.0
 20
0.0
450
        0
451
        0
460
0.0
461
0.0
452
        0
462
0.0
453
        0
470

  0
SPLINE
  5
90
330
7B
100
AcDbEntity
  8
Layer 1
100
AcDbSpline
210
0.0
220
0.0
230
1.0
 70
     9
 71
     3
 72
    44
 73
    40
 74
     0
 42
0.0000000001
 43
0.0000000001
 40
0.0
 40
0.0
 40
0.0
 40
0.0
 40
1.0
 40
1.0
 40
1.0
 40
2.0
 40
2.0
 40
2.0
 40
3.0
 40
3.0
 40
3.0
 40
4.0
 40
4.0
 40
4.0
 40
5.0
 40
5.0
 40
5.0
 40
6.0
 40
6.0
 40
6.0
 40
7.0
 40
7.0
 40
7.0
 40
8.0
 40
8.0
 40
8.0
 40
9.0
 40
9.0
 40
9.0
 40
10.0
 40
10.0
 40
10.0
 40
11.0
 40
11.0
 40
11.0
 40
12.0
 40
12.0
 40
12.0
 40
13.0
 40
13.0
 40
13.0
 40
13.0
 10
156.8769446086757
 20
-57.00674860906645
 30
0.0
 10
156.7653665786472
 20
-56.80611486074422
 30
0.0
 10
156.6645114083165
 20
-56.61527810270816
 30
0.0
 10
156.5749819893936
 20
-56.4345828445068
 30
0.0
 10
156.1979593522265
 20
-55.66962092385386
 30
0.0
 10
155.931330493515
 20
-55.17847949873793
 30
0.0
 10
155.7751600087993
 20
-54.96165380163502
 30
0.0
 10
155.6190110559303
 20
-54.74482810453211
 30
0.0
 10
155.3705766077502
 20
-54.49783629008648
 30
0.0
 10
155.0300073871865
 20
-54.22037691244317
 30
0.0
 10
155.0300073871865
 20
-54.22037691244317
 30
0.0
 10
153.5112801062077
 20
-55.39543438692154
 30
0.0
 10
153.5112801062077
 20
-55.39543438692154
 30
0.0
 10
154.1182198033216
 20
-56.13085461378847
 30
0.0
 10
154.5065897237431
 20
-56.7704365906251
 30
0.0
 10
154.6759376986899
 20
-57.31508465499632
 30
0.0
 10
154.3859037225255
 20
-57.22994773281708
 30
0.0
 10
154.0957405552803
 20
-57.10781909786497
 30
0.0
 10
153.8054266651077
 20
-56.94865568644643
 30
0.0
 10
152.9024671384237
 20
-56.45366006075637
 30
0.0
 10
152.3598861313436
 20
-55.75781536827626
 30
0.0
 10
152.1780927489563
 20
-54.86178909625635
 30
0.0
 10
151.9959979207141
 20
-53.96559056946216
 30
0.0
 10
152.3203751924972
 20
-52.75967795854402
 30
0.0
 10
153.151073841378
 20
-51.24439577305045
 30
0.0
 10
153.8640363520505
 20
-49.94387222736864
 30
0.0
 10
154.6535876417294
 20
-49.13285368644725
 30
0.0
 10
155.5197492422615
 20
-48.81131861843954
 30
0.0
 10
156.3856309287855
 20
-48.48963282750433
 30
0.0
 10
157.2450530612747
 20
-48.56238893778345
 30
0.0
 10
158.0972404932448
 20
-49.0295869492769
 30
0.0
 10
159.0125808318289
 20
-49.53138663855032
 30
0.0
 10
159.5665091221635
 20
-50.22518580558607
 30
0.0
 10
159.7585731954661
 20
-51.11033849498067
 30
0.0
 10
159.9504865458414
 20
-51.995814162077
 30
0.0
 10
159.6623904358873
 20
-53.13909063070394
 30
0.0
 10
158.8939618879024
 20
-54.54081385626498
 30
0.0
 10
158.2260440006995
 20
-55.75915034277679
 30
0.0
 10
157.5537120849063
 20
-56.58138697587201
 30
0.0
 10
156.8769446086757
 20
-57.00674860906645
 30
0.0
  0
SPLINE
  5
91
330
7B
100
AcDbEntity
  8
Layer 1
100
AcDbSpline
210
0.0
220
0.0
230
1.0
 70
     9
 71
     3
 72
    44
 73
    40
 74
     0
 42
0.0000000001
 43
0.0000000001
 40
0.0
 40
0.0
 40
0.0
 40
0.0
 40
1.0
 40
1.0
 40
1.0
 40
2.0
 40
2.0
 40
2.0
 40
3.0
 40
3.0
 40
3.0
 40
4.0
 40
4.0
 40
4.0
 40
5.0
 40
5.0
 40
5.0
 40
6.0
 40
6.0
 40
6.0
 40
7.0
 40
7.0
 40
7.0
 40
8.0
 40
8.0
 40
8.0
 40
9.0
 40
9.0
 40
9.0
 40
10.0
 40
10.0
 40
10.0
 40
11.0
 40
11.0
 40
11.0
 40
12.0
 40
12.0
 40
12.0
 40
13.0
 40
13.0
 40
13.0
 40
13.0
 10
159.6258724237437
 20
-62.28226638932309
 30
0.0
 10
159.5133685243035
 20
-62.0976092713137
 30
0.0
 10
159.291245992892
 20
-61.67216151073214
 30
0.0
 10
158.9586220237912
 20
-61.00538481140881
 30
0.0
 10
160.6438550759414
 20
-60.32786372054086
 30
0.0
 10
162.0487219511328
 20
-58.96349824914802
 30
0.0
 10
163.1737178818411
 20
-56.91138405966539
 30
0.0
 10
164.4369913325887
 20
-54.60700275327534
 30
0.0
 10
164.781264030799
 20
-52.49266152659038
 30
0.0
 10
164.2065144446254
 20
-50.56833884776374
 30
0.0
 10
163.6314634125969
 20
-48.64384391416283
 30
0.0
 10
162.1920809870127
 20
-47.04975516944416
 30
0.0
 10
159.8874197666145
 20
-45.78630946392235
 30
0.0
 10
157.6271572142824
 20
-44.54721627711189
 30
0.0
 10
155.5203521339715
 20
-44.21571196404372
 30
0.0
 10
153.5668753346009
 20
-44.7909783145401
 30
0.0
 10
151.6132262804561
 20
-45.36613700580256
 30
0.0
 10
150.0099219053143
 20
-46.7965406512783
 30
0.0
 10
148.7570698684097
 20
-49.08188780511235
 30
0.0
 10
147.4659772716187
 20
-51.43699814252269
 30
0.0
 10
147.1839100787639
 20
-53.65930004897666
 30
0.0
 10
147.910588375837
 20
-55.74903037478887
 30
0.0
 10
148.5265929804465
 20
-57.51565380777821
 30
0.0
 10
149.8891497767096
 20
-58.97686952600015
 30
0.0
 10
151.9980434461585
 20
-60.13300050715642
 30
0.0
 10
153.4248297413747
 20
-60.91516637338884
 30
0.0
 10
154.724212099177
 20
-61.36074641071233
 30
0.0
 10
155.8963412424929
 20
-61.46937457773162
 30
0.0
 10
156.0190512373082
 20
-61.79950085260568
 30
0.0
 10
156.2643205040112
 20
-62.32606216567933
 30
0.0
 10
156.6315246190452
 20
-63.04871400740406
 30
0.0
 10
156.9990301799342
 20
-63.77153810390304
 30
0.0
 10
157.4028814981927
 20
-64.44238432226831
 30
0.0
 10
157.8435092107561
 20
-65.06189861790336
 30
0.0
 10
157.8435092107561
 20
-65.06189861790336
 30
0.0
 10
160.3555436475196
 20
-63.31049820058948
 30
0.0
 10
160.3555436475196
 20
-63.31049820058948
 30
0.0
 10
160.0390039679655
 20
-62.89889541748926
 30
0.0
 10
159.7958878859408
 20
-62.55619454409402
 30
0.0
 10
159.6258724237437
 20
-62.28226638932309
 30
0.0
  0
HATCH
  5
92
330
7B
100
AcDbEntity
  8
Layer 1
 62
    18
420
        0
440
 33554687
100
AcDbHatch
 10
0.0
 20
0.0
 30
0.0
210
0.0
220
0.0
230
1.0
  2
SOLID
 70
     1
 71
     1
 91
        2
 92
        1
 93
        1
 72
     4
 94
        3
 73
     0
 74
     0
 95
       44
 96
       40
 40
0.0
 40
0.0
 40
0.0
 40
0.0
 40
1.0
 40
1.0
 40
1.0
 40
2.0
 40
2.0
 40
2.0
 40
3.0
 40
3.0
 40
3.0
 40
4.0
 40
4.0
 40
4.0
 40
5.0
 40
5.0
 40
5.0
 40
6.0
 40
6.0
 40
6.0
 40
7.0
 40
7.0
 40
7.0
 40
8.0
 40
8.0
 40
8.0
 40
9.0
 40
9.0
 40
9.0
 40
10.0
 40
10.0
 40
10.0
 40
11.0
 40
11.0
 40
11.0
 40
12.0
 40
12.0
 40
12.0
 40
13.0
 40
13.0
 40
13.0
 40
13.0
 10
156.8769446086757
 20
-57.00674860906645
 10
156.7653665786472
 20
-56.80611486074422
 10
156.6645114083165
 20
-56.61527810270816
 10
156.5749819893936
 20
-56.4345828445068
 10
156.1979593522265
 20
-55.66962092385386
 10
155.931330493515
 20
-55.17847949873793
 10
155.7751600087993
 20
-54.96165380163502
 10
155.6190110559303
 20
-54.74482810453211
 10
155.3705766077502
 20
-54.49783629008648
 10
155.0300073871865
 20
-54.22037691244317
 10
155.0300073871865
 20
-54.22037691244317
 10
153.5112801062077
 20
-55.39543438692154
 10
153.5112801062077
 20
-55.39543438692154
 10
154.1182198033216
 20
-56.13085461378847
 10
154.5065897237431
 20
-56.7704365906251
 10
154.6759376986899
 20
-57.31508465499632
 10
154.3859037225255
 20
-57.22994773281708
 10
154.0957405552803
 20
-57.10781909786497
 10
153.8054266651077
 20
-56.94865568644643
 10
152.9024671384237
 20
-56.45366006075637
 10
152.3598861313436
 20
-55.75781536827626
 10
152.1780927489563
 20
-54.86178909625635
 10
151.9959979207141
 20
-53.96559056946216
 10
152.3203751924972
 20
-52.75967795854402
 10
153.151073841378
 20
-51.24439577305045
 10
153.8640363520505
 20
-49.94387222736864
 10
154.6535876417294
 20
-49.13285368644725
 10
155.5197492422615
 20
-48.81131861843954
 10
156.3856309287855
 20
-48.48963282750433
 10
157.2450530612747
 20
-48.56238893778345
 10
158.0972404932448
 20
-49.0295869492769
 10
159.0125808318289
 20
-49.53138663855032
 10
159.5665091221635
 20
-50.22518580558607
 10
159.7585731954661
 20
-51.11033849498067
 10
159.9504865458414
 20
-51.995814162077
 10
159.6623904358873
 20
-53.13909063070394
 10
158.8939618879024
 20
-54.54081385626498
 10
158.2260440006995
 20
-55.75915034277679
 10
157.5537120849063
 20
-56.58138697587201
 10
156.8769446086757
 20
-57.00674860906645
 97
        0
 97
        1
330
90
 92
        1
 93
        1
 72
     4
 94
        3
 73
     0
 74
     0
 95
       44
 96
       40
 40
0.0
 40
0.0
 40
0.0
 40
0.0
 40
1.0
 40
1.0
 40
1.0
 40
2.0
 40
2.0
 40
2.0
 40
3.0
 40
3.0
 40
3.0
 40
4.0
 40
4.0
 40
4.0
 40
5.0
 40
5.0
 40
5.0
 40
6.0
 40
6.0
 40
6.0
 40
7.0
 40
7.0
 40
7.0
 40
8.0
 40
8.0
 40
8.0
 40
9.0
 40
9.0
 40
9.0
 40
10.0
 40
10.0
 40
10.0
 40
11.0
 40
11.0
 40
11.0
 40
12.0
 40
12.0
 40
12.0
 40
13.0
 40
13.0
 40
13.0
 40
13.0
 10
159.6258724237437
 20
-62.28226638932309
 10
159.5133685243035
 20
-62.0976092713137
 10
159.291245992892
 20
-61.67216151073214
 10
158.9586220237912
 20
-61.00538481140881
 10
160.6438550759414
 20
-60.32786372054086
 10
162.0487219511328
 20
-58.96349824914802
 10
163.1737178818411
 20
-56.91138405966539
 10
164.4369913325887
 20
-54.60700275327534
 10
164.781264030799
 20
-52.49266152659038
 10
164.2065144446254
 20
-50.56833884776374
 10
163.6314634125969
 20
-48.64384391416283
 10
162.1920809870127
 20
-47.04975516944416
 10
159.8874197666145
 20
-45.78630946392235
 10
157.6271572142824
 20
-44.54721627711189
 10
155.5203521339715
 20
-44.21571196404372
 10
153.5668753346009
 20
-44.7909783145401
 10
151.6132262804561
 20
-45.36613700580256
 10
150.0099219053143
 20
-46.7965406512783
 10
148.7570698684097
 20
-49.08188780511235
 10
147.4659772716187
 20
-51.43699814252269
 10
147.1839100787639
 20
-53.65930004897666
 10
147.910588375837
 20
-55.74903037478887
 10
148.5265929804465
 20
-57.51565380777821
 10
149.8891497767096
 20
-58.97686952600015
 10
151.9980434461585
 20
-60.13300050715642
 10
153.4248297413747
 20
-60.91516637338884
 10
154.724212099177
 20
-61.36074641071233
 10
155.8963412424929
 20
-61.46937457773162
 10
156.0190512373082
 20
-61.79950085260568
 10
156.2643205040112
 20
-62.32606216567933
 10
156.6315246190452
 20
-63.04871400740406
 10
156.9990301799342
 20
-63.77153810390304
 10
157.4028814981927
 20
-64.44238432226831
 10
157.8435092107561
 20
-65.06189861790336
 10
157.8435092107561
 20
-65.06189861790336
 10
160.3555436475196
 20
-63.31049820058948
 10
160.3555436475196
 20
-63.31049820058948
 10
160.0390039679655
 20
-62.89889541748926
 10
159.7958878859408
 20
-62.55619454409402
 10
159.6258724237437
 20
-62.28226638932309
 97
        0
 97
        1
330
91
 75
     2
 76
     1
 98
        1
 10
0.0
 20
0.0
450
        0
451
        0
460
0.0
461
0.0
452
        0
462
0.0
453
        0
470

  0
LWPOLYLINE
  5
93
330
7B
100
AcDbEntity
  8
Layer 1
100
AcDbPolyline
 90
        4
 70
     1
 43
0.0
 10
169.3181964027117
 20
-160.5214680588279
 10
180.2485154443042
 20
-160.5214680588279
 10
180.2485154443042
 20
-143.2359598437483
 10
169.3181964027117
 20
-143.2359598437483
  0
HATCH
  5
94
330
7B
100
AcDbEntity
  8
Layer 1
 62
    18
420
        0
440
 33554687
100
AcDbHatch
 10
0.0
 20
0.0
 30
0.0
210
0.0
220
0.0
230
1.0
  2
SOLID
 70
     1
 71
     1
 91
        1
 92
        1
 93
        4
 72
     1
 10
169.3181964027117
 20
-160.5214680588279
 11
180.2485154443042
 21
-160.5214680588279
 72
     1
 10
180.2485154443042
 20
-160.5214680588279
 11
180.2485154443042
 21
-143.2359598437483
 72
     1
 10
180.2485154443042
 20
-143.2359598437483
 11
169.3181964027117
 21
-143.2359598437483
 72
     1
 10
169.3181964027117
 20
-143.2359598437483
 11
169.3181964027117
 21
-160.5214680588279
 97
        1
330
93
 75
     2
 76
     1
 98
        1
 10
0.0
 20
0.0
450
        0
451
        0
460
0.0
461
0.0
452
        0
462
0.0
453
        0
470

  0
LWPOLYLINE
  5
95
330
7B
100
AcDbEntity
  8
Layer 1
100
AcDbPolyline
 90
        4
 70
     1
 43
0.0
 10
113.9295230156799
 20
-160.5214680588279
 10
124.8598420572724
 20
-160.5214680588279
 10
124.8598420572724
 20
-143.2359598437483
 10
113.9295230156799
 20
-143.2359598437483
  0
HATCH
  5
96
330
7B
100
AcDbEntity
  8
Layer 1
 62
    18
420
        0
440
 33554687
100
AcDbHatch
 10
0.0
 20
0.0
 30
0.0
210
0.0
220
0.0
230
1.0
  2
SOLID
 70
     1
 71
     1
 91
        1
 92
        1
 93
        4
 72
     1
 10
113.9295230156799
 20
-160.5214680588279
 11
124.8598420572724
 21
-160.5214680588279
 72
     1
 10
124.8598420572724
 20
-160.5214680588279
 11
124.8598420572724
 21
-143.2359598437483
 72
     1
 10
124.8598420572724
 20
-143.2359598437483
 11
113.9295230156799
 21
-143.2359598437483
 72
     1
 10
113.9295230156799
 20
-143.2359598437483
 11
113.9295230156799
 21
-160.5214680588279
 97
        1
330
95
 75
     2
 76
     1
 98
        1
 10
0.0
 20
0.0
450
        0
451
        0
460
0.0
461
0.0
452
        0
462
0.0
453
        0
470

  0
LWPOLYLINE
  5
97
330
7B
100
AcDbEntity
  8
Layer 1
100
AcDbPolyline
 90
        4
 70
     1
 43
0.0
 10
142.3894783511756
 20
-160.5214680588279
 10
153.3197758609214
 20
-160.5214680588279
 10
153.3197758609214
 20
-143.2359598437483
 10
142.3894783511756
 20
-143.2359598437483
  0
HATCH
  5
98
330
7B
100
AcDbEntity
  8
Layer 1
 62
    18
420
        0
440
 33554687
100
AcDbHatch
 10
0.0
 20
0.0
 30
0.0
210
0.0
220
0.0
230
1.0
  2
SOLID
 70
     1
 71
     1
 91
        1
 92
        1
 93
        4
 72
     1
 10
142.3894783511756
 20
-160.5214680588279
 11
153.3197758609214
 21
-160.5214680588279
 72
     1
 10
153.3197758609214
 20
-160.5214680588279
 11
153.3197758609214
 21
-143.2359598437483
 72
     1
 10
153.3197758609214
 20
-143.2359598437483
 11
142.3894783511756
 21
-143.2359598437483
 72
     1
 10
142.3894783511756
 20
-143.2359598437483
 11
142.3894783511756
 21
-160.5214680588279
 97
        1
330
97
 75
     2
 76
     1
 98
        1
 10
0.0
 20
0.0
450
        0
451
        0
460
0.0
461
0.0
452
        0
462
0.0
453
        0
470

  0
LWPOLYLINE
  5
99
330
7B
100
AcDbEntity
  8
Layer 1
100
AcDbPolyline
 90
        6
 70
     1
 43
0.0
 10
113.3704055502707
 20
-125.4631644041268
 10
113.3704055502707
 20
-127.0911442756816
 10
124.3007030600164
 20
-127.0911442756816
 10
124.3007030600164
 20
-109.8056145287552
 10
116.536771278917
 20
-109.8056145287552
 10
119.2388888590791
 20
-121.3930855341591
  0
HATCH
  5
9A
330
7B
100
AcDbEntity
  8
Layer 1
 62
    18
420
        0
440
 33554687
100
AcDbHatch
 10
0.0
 20
0.0
 30
0.0
210
0.0
220
0.0
230
1.0
  2
SOLID
 70
     1
 71
     1
 91
        1
 92
        1
 93
        6
 72
     1
 10
113.3704055502707
 20
-125.4631644041268
 11
113.3704055502707
 21
-127.0911442756816
 72
     1
 10
113.3704055502707
 20
-127.0911442756816
 11
124.3007030600164
 21
-127.0911442756816
 72
     1
 10
124.3007030600164
 20
-127.0911442756816
 11
124.3007030600164
 21
-109.8056145287552
 72
     1
 10
124.3007030600164
 20
-109.8056145287552
 11
116.536771278917
 21
-109.8056145287552
 72
     1
 10
116.536771278917
 20
-109.8056145287552
 11
119.2388888590791
 21
-121.3930855341591
 72
     1
 10
119.2388888590791
 20
-121.3930855341591
 11
113.3704055502707
 21
-125.4631644041268
 97
        1
330
99
 75
     2
 76
     1
 98
        1
 10
0.0
 20
0.0
450
        0
451
        0
460
0.0
461
0.0
452
        0
462
0.0
453
        0
470

  0
LWPOLYLINE
  5
9B
330
7B
100
AcDbEntity
  8
Layer 1
100
AcDbPolyline
 90
        4
 70
     1
 43
0.0
 10
152.7606583955121
 20
-109.8056145287552
 10
141.8303608857663
 20
-109.8056145287552
 10
141.8303608857663
 20
-127.0911442756816
 10
152.7606583955121
 20
-127.0911442756816
  0
HATCH
  5
9C
330
7B
100
AcDbEntity
  8
Layer 1
 62
    18
420
        0
440
 33554687
100
AcDbHatch
 10
0.0
 20
0.0
 30
0.0
210
0.0
220
0.0
230
1.0
  2
SOLID
 70
     1
 71
     1
 91
        1
 92
        1
 93
        4
 72
     1
 10
152.7606583955121
 20
-109.8056145287552
 11
141.8303608857663
 21
-109.8056145287552
 72
     1
 10
141.8303608857663
 20
-109.8056145287552
 11
141.8303608857663
 21
-127.0911442756816
 72
     1
 10
141.8303608857663
 20
-127.0911442756816
 11
152.7606583955121
 21
-127.0911442756816
 72
     1
 10
152.7606583955121
 20
-127.0911442756816
 11
152.7606583955121
 21
-109.8056145287552
 97
        1
330
9B
 75
     2
 76
     1
 98
        1
 10
0.0
 20
0.0
450
        0
451
        0
460
0.0
461
0.0
452
        0
462
0.0
453
        0
470

  0
LWPOLYLINE
  5
9D
330
7B
100
AcDbEntity
  8
Layer 1
100
AcDbPolyline
 90
        5
 70
     1
 43
0.0
 10
179.6893764470481
 20
-94.93681926473151
 10
179.6893764470481
 20
-90.13209531438105
 10
176.2246223856856
 20
-87.57992551521439
 10
168.7590789373024
 20
-83.23643525479853
 10
168.7590789373024
 20
-94.93681926473151
  0
HATCH
  5
9E
330
7B
100
AcDbEntity
  8
Layer 1
 62
    18
420
        0
440
 33554687
100
AcDbHatch
 10
0.0
 20
0.0
 30
0.0
210
0.0
220
0.0
230
1.0
  2
SOLID
 70
     1
 71
     1
 91
        1
 92
        1
 93
        5
 72
     1
 10
179.6893764470481
 20
-94.93681926473151
 11
179.6893764470481
 21
-90.13209531438105
 72
     1
 10
179.6893764470481
 20
-90.13209531438105
 11
176.2246223856856
 21
-87.57992551521439
 72
     1
 10
176.2246223856856
 20
-87.57992551521439
 11
168.7590789373024
 21
-83.23643525479853
 72
     1
 10
168.7590789373024
 20
-83.23643525479853
 11
168.7590789373024
 21
-94.93681926473151
 72
     1
 10
168.7590789373024
 20
-94.93681926473151
 11
179.6893764470481
 21
-94.93681926473151
 97
        1
330
9D
 75
     2
 76
     1
 98
        1
 10
0.0
 20
0.0
450
        0
451
        0
460
0.0
461
0.0
452
        0
462
0.0
453
        0
470

  0
LWPOLYLINE
  5
9F
330
7B
100
AcDbEntity
  8
Layer 1
100
AcDbPolyline
 90
        4
 70
     1
 43
0.0
 10
124.3007030600164
 20
-77.65128951780507
 10
113.3704055502707
 20
-77.65128951780507
 10
113.3704055502707
 20
-94.93681926473151
 10
124.3007030600164
 20
-94.93681926473151
  0
HATCH
  5
A0
330
7B
100
AcDbEntity
  8
Layer 1
 62
    18
420
        0
440
 33554687
100
AcDbHatch
 10
0.0
 20
0.0
 30
0.0
210
0.0
220
0.0
230
1.0
  2
SOLID
 70
     1
 71
     1
 91
        1
 92
        1
 93
        4
 72
     1
 10
124.3007030600164
 20
-77.65128951780507
 11
113.3704055502707
 21
-77.65128951780507
 72
     1
 10
113.3704055502707
 20
-77.65128951780507
 11
113.3704055502707
 21
-94.93681926473151
 72
     1
 10
113.3704055502707
 20
-94.93681926473151
 11
124.3007030600164
 21
-94.93681926473151
 72
     1
 10
124.3007030600164
 20
-94.93681926473151
 11
124.3007030600164
 21
-77.65128951780507
 97
        1
330
9F
 75
     2
 76
     1
 98
        1
 10
0.0
 20
0.0
450
        0
451
        0
460
0.0
461
0.0
452
        0
462
0.0
453
        0
470

  0
LWPOLYLINE
  5
A1
330
7B
100
AcDbEntity
  8
Layer 1
100
AcDbPolyline
 90
        4
 70
     1
 43
0.0
 10
141.8303608857663
 20
-94.93681926473151
 10
152.7606583955121
 20
-94.93681926473151
 10
152.7606583955121
 20
-77.65128951780507
 10
141.8303608857663
 20
-77.65128951780507
  0
HATCH
  5
A2
330
7B
100
AcDbEntity
  8
Layer 1
 62
    18
420
        0
440
 33554687
100
AcDbHatch
 10
0.0
 20
0.0
 30
0.0
210
0.0
220
0.0
230
1.0
  2
SOLID
 70
     1
 71
     1
 91
        1
 92
        1
 93
        4
 72
     1
 10
141.8303608857663
 20
-94.93681926473151
 11
152.7606583955121
 21
-94.93681926473151
 72
     1
 10
152.7606583955121
 20
-94.93681926473151
 11
152.7606583955121
 21
-77.65128951780507
 72
     1
 10
152.7606583955121
 20
-77.65128951780507
 11
141.8303608857663
 21
-77.65128951780507
 72
     1
 10
141.8303608857663
 20
-77.65128951780507
 11
141.8303608857663
 21
-94.93681926473151
 97
        1
330
A1
 75
     2
 76
     1
 98
        1
 10
0.0
 20
0.0
450
        0
451
        0
460
0.0
461
0.0
452
        0
462
0.0
453
        0
470

  0
ENDBLK
  5
7E
330
7B
100
AcDbEntity
  8
0
100
AcDbBlockEnd
  0
ENDSEC
  0
SECTION
  2
ENTITIES
  0
LWPOLYLINE
  5
79
330
70
100
AcDbEntity
  8
Layer 1
100
AcDbPolyline
 90
        4
 70
     1
 43
0.0
 10
152.1890837357438
 20
-190.4249399344901
 10
143.1901386579831
 20
-190.4249399344901
 10
143.1901386579831
 20
-176.1937351805378
 10
152.1890837357438
 20
-176.1937351805378
  0
HATCH
  5
7A
330
70
100
AcDbEntity
  8
Layer 1
 62
   250
420
  2301728
440
 33554687
100
AcDbHatch
 10
0.0
 20
0.0
 30
0.0
210
0.0
220
0.0
230
1.0
  2
SOLID
 70
     1
 71
     1
 91
        1
 92
        1
 93
        4
 72
     1
 10
152.1890837357438
 20
-190.4249399344901
 11
143.1901386579831
 21
-190.4249399344901
 72
     1
 10
143.1901386579831
 20
-190.4249399344901
 11
143.1901386579831
 21
-176.1937351805378
 72
     1
 10
143.1901386579831
 20
-176.1937351805378
 11
152.1890837357438
 21
-176.1937351805378
 72
     1
 10
152.1890837357438
 20
-176.1937351805378
 11
152.1890837357438
 21
-190.4249399344901
 97
        1
330
79
 75
     2
 76
     1
 98
        1
 10
0.0
 20
0.0
450
        0
451
        0
460
0.0
461
0.0
452
        0
462
0.0
453
        0
470

  0
INSERT
  5
7C
330
70
100
AcDbEntity
  8
Layer 1
100
AcDbBlockReference
  2
Block_0
 10
0.0
 20
0.0
 30
0.0
  0
ENDSEC
  0
SECTION
  2
OBJECTS
  0
DICTIONARY
  5
C
330
0
100
AcDbDictionary
281
     1
  3
ACAD_COLOR
350
63
  3
ACAD_DETAILVIEWSTYLE
350
6A
  3
ACAD_GROUP
350
D
  3
ACAD_LAYOUT
350
62
  3
ACAD_MATERIAL
350
10
  3
ACAD_MLEADERSTYLE
350
66
  3
ACAD_MLINESTYLE
350
5F
  3
ACAD_PLOTSETTINGS
350
61
  3
ACAD_PLOTSTYLENAME
350
E
  3
ACAD_SCALELIST
350
42
  3
ACAD_SECTIONVIEWSTYLE
350
68
  3
ACAD_TABLESTYLE
350
64
  3
ACAD_VISUALSTYLE
350
29
  3
ACDB_RECOMPOSE_DATA
350
AB
  3
AcDbVariableDictionary
350
A3
  0
DICTIONARY
  5
63
102
{ACAD_REACTORS
330
C
102
}
330
C
100
AcDbDictionary
281
     1
  0
DICTIONARY
  5
6A
102
{ACAD_REACTORS
330
C
102
}
330
C
100
AcDbDictionary
281
     1
  3
Imperial24
350
6B
  0
DICTIONARY
  5
D
102
{ACAD_REACTORS
330
C
102
}
330
C
100
AcDbDictionary
281
     1
  0
DICTIONARY
  5
62
102
{ACAD_REACTORS
330
C
102
}
330
C
100
AcDbDictionary
281
     1
  3
Layout1
350
6F
  3
Layout2
350
77
  3
Model
350
73
  0
DICTIONARY
  5
10
102
{ACAD_REACTORS
330
C
102
}
330
C
100
AcDbDictionary
281
     1
  3
ByBlock
350
19
  3
ByLayer
350
11
  3
Global
350
21
  0
DICTIONARY
  5
66
102
{ACAD_REACTORS
330
C
102
}
330
C
100
AcDbDictionary
281
     1
  3
Standard
350
67
  0
DICTIONARY
  5
5F
102
{ACAD_REACTORS
330
C
102
}
330
C
100
AcDbDictionary
281
     1
  3
Standard
350
60
  0
DICTIONARY
  5
61
102
{ACAD_REACTORS
330
C
102
}
330
C
100
AcDbDictionary
281
     1
  0
ACDBDICTIONARYWDFLT
  5
E
102
{ACAD_REACTORS
330
C
102
}
330
C
100
AcDbDictionary
281
     1
  3
Normal
350
F
100
AcDbDictionaryWithDefault
340
F
  0
DICTIONARY
  5
42
102
{ACAD_REACTORS
330
C
102
}
330
C
100
AcDbDictionary
281
     1
  3
A0
350
43
  3
A1
350
44
  3
A2
350
45
  3
A3
350
46
  3
A4
350
47
  3
A5
350
48
  3
A6
350
49
  3
A7
350
4A
  3
A8
350
4B
  3
A9
350
4C
  3
B0
350
4D
  3
B1
350
4E
  3
B2
350
4F
  3
B3
350
50
  3
B4
350
51
  3
B5
350
52
  3
B6
350
53
  0
DICTIONARY
  5
68
102
{ACAD_REACTORS
330
C
102
}
330
C
100
AcDbDictionary
281
     1
  3
Imperial24
350
69
  0
DICTIONARY
  5
64
102
{ACAD_REACTORS
330
C
102
}
330
C
100
AcDbDictionary
281
     1
  3
Standard
350
65
  0
DICTIONARY
  5
29
102
{ACAD_REACTORS
330
C
102
}
330
C
100
AcDbDictionary
281
     1
  3
2dWireframe
350
2F
  3
Basic
350
2E
  3
Brighten
350
35
  3
ColorChange
350
39
  3
Conceptual
350
32
  3
Dim
350
34
  3
EdgeColorOff
350
41
  3
Facepattern
350
38
  3
Flat
350
2A
  3
FlatWithEdges
350
2B
  3
Gouraud
350
2C
  3
GouraudWithEdges
350
2D
  3
Hidden
350
31
  3
JitterOff
350
3F
  3
Linepattern
350
37
  3
OverhangOff
350
40
  3
Realistic
350
33
  3
Shaded
350
3E
  3
Shaded with edges
350
3D
  3
Shades of Gray
350
3A
  3
Sketchy
350
3B
  3
Thicken
350
36
  3
Wireframe
350
30
  3
X-Ray
350
3C
  0
XRECORD
  5
AB
102
{ACAD_REACTORS
330
C
102
}
330
C
100
AcDbXrecord
280
     1
 90
        1
330
65
  0
DICTIONARY
  5
A3
102
{ACAD_REACTORS
330
C
102
}
330
C
100
AcDbDictionary
281
     1
  3
CANNOSCALE
350
A8
  3
CMLEADERSTYLE
350
A5
  3
CTABLESTYLE
350
A4
  3
CVIEWDETAILSTYLE
350
A6
  3
CVIEWSECTIONSTYLE
350
A7
  0
ACDBDETAILVIEWSTYLE
  5
6B
102
{ACAD_REACTORS
330
6A
102
}
330
6A
100
AcDbModelDocViewStyle
 70
     0
  3
Imperial24
290
     1
300
Imperial24
 90
        0
100
AcDbDetailViewStyle
 70
     0
 71
     0
 90
        3
 71
     1
340
55
 62
   256
 40
0.24
340
0
 62
   256
 40
0.24
300

 40
0.36
280
     3
 71
     2
340
5D
 90
       25
 62
   256
 71
     3
340
55
 62
   256
 40
0.24
 90
        1
 40
0.75
 90
        1
300
%<\AcVar ViewType \f "%tc1">% %<\AcVar ViewDetailId>%\PSCALE %<\AcVar ViewScale \f "%sn">%
 71
     4
340
5D
 90
       25
 62
   256
340
5D
 90
       25
 62
   256
280
     0
  0
LAYOUT
  5
6F
102
{ACAD_REACTORS
330
62
102
}
330
62
100
AcDbPlotSettings
  1

  2

  4

  6

 40
0.0
 41
0.0
 42
0.0
 43
0.0
 44
0.0
 45
0.0
 46
0.0
 47
0.0
 48
0.0
 49
0.0
140
0.0
141
0.0
142
1.0
143
1.0
 70
   688
 72
     0
 73
     0
 74
     5
  7

 75
    16
147
1.0
 76
     0
 77
     2
 78
   300
148
0.0
149
0.0
100
AcDbLayout
  1
Layout1
 70
     1
 71
     1
 10
0.0
 20
0.0
 11
12.0
 21
9.0
 12
0.0
 22
0.0
 32
0.0
 14
0.0
 24
0.0
 34
0.0
 15
0.0
 25
0.0
 35
0.0
146
0.0
 13
0.0
 23
0.0
 33
0.0
 16
1.0
 26
0.0
 36
0.0
 17
0.0
 27
1.0
 37
0.0
 76
     0
330
6C
  0
LAYOUT
  5
77
102
{ACAD_REACTORS
330
62
102
}
330
62
100
AcDbPlotSettings
  1

  2

  4

  6

 40
0.0
 41
0.0
 42
0.0
 43
0.0
 44
0.0
 45
0.0
 46
0.0
 47
0.0
 48
0.0
 49
0.0
140
0.0
141
0.0
142
1.0
143
1.0
 70
   688
 72
     0
 73
     0
 74
     5
  7

 75
    16
147
1.0
 76
     0
 77
     2
 78
   300
148
0.0
149
0.0
100
AcDbLayout
  1
Layout2
 70
     1
 71
     2
 10
0.0
 20
0.0
 11
12.0
 21
9.0
 12
0.0
 22
0.0
 32
0.0
 14
0.0
 24
0.0
 34
0.0
 15
0.0
 25
0.0
 35
0.0
146
0.0
 13
0.0
 23
0.0
 33
0.0
 16
1.0
 26
0.0
 36
0.0
 17
0.0
 27
1.0
 37
0.0
 76
     0
330
74
  0
LAYOUT
  5
73
102
{ACAD_REACTORS
330
62
102
}
330
62
100
AcDbPlotSettings
  1

  2

  4

  6

 40
0.0
 41
0.0
 42
0.0
 43
0.0
 44
0.0
 45
0.0
 46
0.0
 47
0.0
 48
0.0
 49
0.0
140
0.0
141
0.0
142
1.0
143
1.0
 70
  1712
 72
     0
 73
     0
 74
     0
  7

 75
     0
147
1.0
 76
     0
 77
     2
 78
   300
148
0.0
149
0.0
100
AcDbLayout
  1
Model
 70
     1
 71
     0
 10
0.0
 20
0.0
 11
12.0
 21
9.0
 12
0.0
 22
0.0
 32
0.0
 14
0.0
 24
0.0
 34
0.0
 15
0.0
 25
0.0
 35
0.0
146
0.0
 13
0.0
 23
0.0
 33
0.0
 16
1.0
 26
0.0
 36
0.0
 17
0.0
 27
1.0
 37
0.0
 76
     0
330
70
  0
MATERIAL
  5
19
102
{ACAD_XDICTIONARY
360
1A
102
}
102
{ACAD_REACTORS
330
10
102
}
330
10
100
AcDbMaterial
  1
ByBlock
 72
     0
 43
0.0208333333333333
 43
0.0
 43
0.0
 43
0.0
 43
0.0
 43
0.0208333333333333
 43
0.0
 43
0.0
 43
0.0
 43
0.0
 43
1.0
 43
0.0
 43
0.0
 43
0.0
 43
0.0
 43
1.0
 77
     0
 47
0.0208333333333333
 47
0.0
 47
0.0
 47
0.0
 47
0.0
 47
0.0208333333333333
 47
0.0
 47
0.0
 47
0.0
 47
0.0
 47
1.0
 47
0.0
 47
0.0
 47
0.0
 47
0.0
 47
1.0
171
     0
 49
0.0208333333333333
 49
0.0
 49
0.0
 49
0.0
 49
0.0
 49
0.0208333333333333
 49
0.0
 49
0.0
 49
0.0
 49
0.0
 49
1.0
 49
0.0
 49
0.0
 49
0.0
 49
0.0
 49
1.0
175
     0
142
0.0208333333333333
142
0.0
142
0.0
142
0.0
142
0.0
142
0.0208333333333333
142
0.0
142
0.0
142
0.0
142
0.0
142
1.0
142
0.0
142
0.0
142
0.0
142
0.0
142
1.0
179
     0
144
0.0208333333333333
144
0.0
144
0.0
144
0.0
144
0.0
144
0.0208333333333333
144
0.0
144
0.0
144
0.0
144
0.0
144
1.0
144
0.0
144
0.0
144
0.0
144
0.0
144
1.0
147
0.0208333333333333
147
0.0
147
0.0
147
0.0
147
0.0
147
0.0208333333333333
147
0.0
147
0.0
147
0.0
147
0.0
147
1.0
147
0.0
147
0.0
147
0.0
147
0.0
147
1.0
  0
MATERIAL
  5
11
102
{ACAD_XDICTIONARY
360
12
102
}
102
{ACAD_REACTORS
330
10
102
}
330
10
100
AcDbMaterial
  1
ByLayer
 72
     0
 43
0.0208333333333333
 43
0.0
 43
0.0
 43
0.0
 43
0.0
 43
0.0208333333333333
 43
0.0
 43
0.0
 43
0.0
 43
0.0
 43
1.0
 43
0.0
 43
0.0
 43
0.0
 43
0.0
 43
1.0
 77
     0
 47
0.0208333333333333
 47
0.0
 47
0.0
 47
0.0
 47
0.0
 47
0.0208333333333333
 47
0.0
 47
0.0
 47
0.0
 47
0.0
 47
1.0
 47
0.0
 47
0.0
 47
0.0
 47
0.0
 47
1.0
171
     0
 49
0.0208333333333333
 49
0.0
 49
0.0
 49
0.0
 49
0.0
 49
0.0208333333333333
 49
0.0
 49
0.0
 49
0.0
 49
0.0
 49
1.0
 49
0.0
 49
0.0
 49
0.0
 49
0.0
 49
1.0
175
     0
142
0.0208333333333333
142
0.0
142
0.0
142
0.0
142
0.0
142
0.0208333333333333
142
0.0
142
0.0
142
0.0
142
0.0
142
1.0
142
0.0
142
0.0
142
0.0
142
0.0
142
1.0
179
     0
144
0.0208333333333333
144
0.0
144
0.0
144
0.0
144
0.0
144
0.0208333333333333
144
0.0
144
0.0
144
0.0
144
0.0
144
1.0
144
0.0
144
0.0
144
0.0
144
0.0
144
1.0
147
0.0208333333333333
147
0.0
147
0.0
147
0.0
147
0.0
147
0.0208333333333333
147
0.0
147
0.0
147
0.0
147
0.0
147
1.0
147
0.0
147
0.0
147
0.0
147
0.0
147
1.0
  0
MATERIAL
  5
21
102
{ACAD_XDICTIONARY
360
22
102
}
102
{ACAD_REACTORS
330
10
102
}
330
10
100
AcDbMaterial
  1
Global
 72
     0
 43
0.0208333333333333
 43
0.0
 43
0.0
 43
0.0
 43
0.0
 43
0.0208333333333333
 43
0.0
 43
0.0
 43
0.0
 43
0.0
 43
1.0
 43
0.0
 43
0.0
 43
0.0
 43
0.0
 43
1.0
 77
     0
 47
0.0208333333333333
 47
0.0
 47
0.0
 47
0.0
 47
0.0
 47
0.0208333333333333
 47
0.0
 47
0.0
 47
0.0
 47
0.0
 47
1.0
 47
0.0
 47
0.0
 47
0.0
 47
0.0
 47
1.0
171
     0
 49
0.0208333333333333
 49
0.0
 49
0.0
 49
0.0
 49
0.0
 49
0.0208333333333333
 49
0.0
 49
0.0
 49
0.0
 49
0.0
 49
1.0
 49
0.0
 49
0.0
 49
0.0
 49
0.0
 49
1.0
175
     0
142
0.0208333333333333
142
0.0
142
0.0
142
0.0
142
0.0
142
0.0208333333333333
142
0.0
142
0.0
142
0.0
142
0.0
142
1.0
142
0.0
142
0.0
142
0.0
142
0.0
142
1.0
179
     0
144
0.0208333333333333
144
0.0
144
0.0
144
0.0
144
0.0
144
0.0208333333333333
144
0.0
144
0.0
144
0.0
144
0.0
144
1.0
144
0.0
144
0.0
144
0.0
144
0.0
144
1.0
147
0.0208333333333333
147
0.0
147
0.0
147
0.0
147
0.0
147
0.0208333333333333
147
0.0
147
0.0
147
0.0
147
0.0
147
1.0
147
0.0
147
0.0
147
0.0
147
0.0
147
1.0
  0
MLEADERSTYLE
  5
67
102
{ACAD_REACTORS
330
66
102
}
330
66
100
AcDbMLeaderStyle
179
     2
170
     2
171
     1
172
     0
 90
        2
 40
0.0
 41
0.0
173
     1
 91
-1056964608
340
5B
 92
       -2
290
     1
 42
0.09
291
     1
 43
0.36
  3
Standard
 44
0.18
300

342
55
174
     1
178
     6
175
     1
176
     0
 93
-1056964608
 45
0.18
292
     0
297
     0
 46
0.18
 94
-1056964608
 47
1.0
 49
1.0
140
1.0
293
     1
141
0.0
294
     1
177
     0
142
1.0
295
     1
296
     0
143
0.125
271
     0
272
     9
273
     9
298
     1
  0
MLINESTYLE
  5
60
102
{ACAD_REACTORS
330
5F
102
}
330
5F
100
AcDbMlineStyle
  2
STANDARD
 70
     0
  3

 62
   256
 51
90.0
 52
90.0
 71
     2
 49
0.5
 62
   256
  6
BYLAYER
 49
-0.5
 62
   256
  6
BYLAYER
  0
ACDBPLACEHOLDER
  5
F
102
{ACAD_REACTORS
330
E
102
}
330
E
  0
SCALE
  5
43
102
{ACAD_REACTORS
330
42
102
}
330
42
100
AcDbScale
 70
     0
300
1:1
140
1.0
141
1.0
290
     1
  0
SCALE
  5
44
102
{ACAD_REACTORS
330
42
102
}
330
42
100
AcDbScale
 70
     0
300
1/128" = 1'-0"
140
0.0078125
141
12.0
290
     0
  0
SCALE
  5
45
102
{ACAD_REACTORS
330
42
102
}
330
42
100
AcDbScale
 70
     0
300
1/64" = 1'-0"
140
0.015625
141
12.0
290
     0
  0
SCALE
  5
46
102
{ACAD_REACTORS
330
42
102
}
330
42
100
AcDbScale
 70
     0
300
1/32" = 1'-0"
140
0.03125
141
12.0
290
     0
  0
SCALE
  5
47
102
{ACAD_REACTORS
330
42
102
}
330
42
100
AcDbScale
 70
     0
300
1/16" = 1'-0"
140
0.0625
141
12.0
290
     0
  0
SCALE
  5
48
102
{ACAD_REACTORS
330
42
102
}
330
42
100
AcDbScale
 70
     0
300
3/32" = 1'-0"
140
0.09375
141
12.0
290
     0
  0
SCALE
  5
49
102
{ACAD_REACTORS
330
42
102
}
330
42
100
AcDbScale
 70
     0
300
1/8" = 1'-0"
140
0.125
141
12.0
290
     0
  0
SCALE
  5
4A
102
{ACAD_REACTORS
330
42
102
}
330
42
100
AcDbScale
 70
     0
300
3/16" = 1'-0"
140
0.1875
141
12.0
290
     0
  0
SCALE
  5
4B
102
{ACAD_REACTORS
330
42
102
}
330
42
100
AcDbScale
 70
     0
300
1/4" = 1'-0"
140
0.25
141
12.0
290
     0
  0
SCALE
  5
4C
102
{ACAD_REACTORS
330
42
102
}
330
42
100
AcDbScale
 70
     0
300
3/8" = 1'-0"
140
0.375
141
12.0
290
     0
  0
SCALE
  5
4D
102
{ACAD_REACTORS
330
42
102
}
330
42
100
AcDbScale
 70
     0
300
1/2" = 1'-0"
140
0.5
141
12.0
290
     0
  0
SCALE
  5
4E
102
{ACAD_REACTORS
330
42
102
}
330
42
100
AcDbScale
 70
     0
300
3/4" = 1'-0"
140
0.75
141
12.0
290
     0
  0
SCALE
  5
4F
102
{ACAD_REACTORS
330
42
102
}
330
42
100
AcDbScale
 70
     0
300
1" = 1'-0"
140
1.0
141
12.0
290
     0
  0
SCALE
  5
50
102
{ACAD_REACTORS
330
42
102
}
330
42
100
AcDbScale
 70
     0
300
1-1/2" = 1'-0"
140
1.5
141
12.0
290
     0
  0
SCALE
  5
51
102
{ACAD_REACTORS
330
42
102
}
330
42
100
AcDbScale
 70
     0
300
3" = 1'-0"
140
3.0
141
12.0
290
     0
  0
SCALE
  5
52
102
{ACAD_REACTORS
330
42
102
}
330
42
100
AcDbScale
 70
     0
300
6" = 1'-0"
140
6.0
141
12.0
290
     0
  0
SCALE
  5
53
102
{ACAD_REACTORS
330
42
102
}
330
42
100
AcDbScale
 70
     0
300
1'-0" = 1'-0"
140
12.0
141
12.0
290
     0
  0
ACDBSECTIONVIEWSTYLE
  5
69
102
{ACAD_REACTORS
330
68
102
}
330
68
100
AcDbModelDocViewStyle
 70
     0
  3
Imperial24
290
     1
300
Imperial24
 90
        0
100
AcDbSectionViewStyle
 70
     0
 71
     0
 90
       78
 71
     1
340
55
 62
   256
 40
0.24
340
0
340
0
 62
   256
 40
0.24
300
I, O, Q, S, X, Z
 40
0.48
 90
        3
 40
0.18
 90
        1
 71
     2
340
5D
 90
       25
 62
   256
340
5D
 90
       50
 62
   256
 40
0.24
 40
0.0
 40
0.24
 71
     3
340
55
 62
   256
 40
0.24
 90
        1
 40
0.75
 90
        1
300
%<\AcVar ViewType \f "%tc1">% %<\AcVar ViewSectionStartId>%-%<\AcVar ViewSectionEndId>%\PSCALE %<\AcVar ViewScale \f "%sn">%
 71
     4
 62
   256
 62
   257
300
ANSI31
 40
1.0
 90
        0
290
     0
290
     0
 90
        6
 40
0.0
 40
1.570796326794896
 40
0.2617993877991494
 40
1.308996938995747
 40
-0.2617993877991494
 40
1.832595714594046
  0
TABLESTYLE
  5
65
102
{ACAD_XDICTIONARY
360
A9
102
}
102
{ACAD_REACTORS
330
64
102
}
330
64
100
AcDbTableStyle
280
     0
  3
Standard
 70
     0
 71
     0
 40
0.06
 41
0.06
280
     0
281
     0
  7
Standard
140
0.18
170
     2
 62
     0
 63
     7
283
     0
 90
      512
 91
        0
  1

274
    -2
284
     1
 64
     0
275
    -2
285
     1
 65
     0
276
    -2
286
     1
 66
     0
277
    -2
287
     1
 67
     0
278
    -2
288
     1
 68
     0
279
    -2
289
     1
 69
     0
  7
Standard
140
0.25
170
     5
 62
     0
 63
     7
283
     0
 90
      512
 91
        0
  1

274
    -2
284
     1
 64
     0
275
    -2
285
     1
 65
     0
276
    -2
286
     1
 66
     0
277
    -2
287
     1
 67
     0
278
    -2
288
     1
 68
     0
279
    -2
289
     1
 69
     0
  7
Standard
140
0.18
170
     5
 62
     0
 63
     7
283
     0
 90
      512
 91
        0
  1

274
    -2
284
     1
 64
     0
275
    -2
285
     1
 65
     0
276
    -2
286
     1
 66
     0
277
    -2
287
     1
 67
     0
278
    -2
288
     1
 68
     0
279
    -2
289
     1
 69
     0
  0
VISUALSTYLE
  5
2F
102
{ACAD_REACTORS
330
29
102
}
330
29
100
AcDbVisualStyle
  2
2dWireframe
 70
     4
177
     3
291
     0
 70
    58
 90
        0
176
     1
 90
        2
176
     1
 90
        0
176
     1
 90
        0
176
     1
 40
0.6
176
     1
 40
30.0
176
     1
 62
     7
420
 16777215
176
     1
 90
        1
176
     1
 90
        4
176
     1
 62
     7
176
     1
 62
   257
176
     1
 90
        1
176
     1
 90
        1
176
     1
 40
1.0
176
     1
 90
        0
176
     1
 62
   257
176
     1
 40
1.0
176
     1
 90
        1
176
     1
 90
        6
176
     1
 90
        2
176
     1
 62
     7
176
     1
 90
        5
176
     1
 90
        0
176
     1
 90
        0
176
     1
290
     0
176
     1
 90
        1
176
     1
 40
0.0
176
     1
 90
        0
176
     1
290
     1
176
     1
290
     1
176
     1
290
     0
176
     1
290
     0
176
     1
290
     0
176
     1
290
     0
176
     1
290
     0
176
     1
290
     0
176
     1
290
     0
176
     1
 90
       50
176
     1
 40
0.0
176
     1
 40
1.0
176
     1
 90
        0
176
     1
 62
    18
420
        0
176
     1
 90
       50
176
     1
 90
        3
176
     1
 62
     5
420
      255
176
     1
290
     0
176
     1
 90
       50
176
     1
 90
       50
176
     1
 90
       50
176
     1
290
     0
176
     1
 90
       50
176
     1
 62
   256
176
     0
 40
1.0
176
     0
 90
        2
176
     1
  1
strokes_ogs.tif
176
     1
290
     0
176
     1
 40
1.0
176
     1
 40
1.0
176
     1
  0
VISUALSTYLE
  5
2E
102
{ACAD_REACTORS
330
29
102
}
330
29
100
AcDbVisualStyle
  2
Basic
 70
     7
177
     3
291
     1
 70
    58
 90
        1
176
     1
 90
        0
176
     1
 90
        1
176
     1
 90
        0
176
     1
 40
0.6
176
     1
 40
30.0
176
     1
 62
     7
420
 16777215
176
     1
 90
        0
176
     1
 90
        4
176
     1
 62
     7
176
     1
 62
   257
176
     1
 90
        1
176
     1
 90
        1
176
     1
 40
1.0
176
     1
 90
        8
176
     1
 62
     7
176
     1
 40
1.0
176
     1
 90
        1
176
     1
 90
        6
176
     1
 90
        2
176
     1
 62
     7
176
     1
 90
        5
176
     1
 90
        0
176
     1
 90
        0
176
     1
290
     0
176
     1
 90
        1
176
     1
 40
0.0
176
     1
 90
        0
176
     1
290
     0
176
     1
290
     1
176
     1
290
     1
176
     1
290
     0
176
     1
290
     0
176
     1
290
     0
176
     1
290
     0
176
     1
290
     0
176
     1
290
     0
176
     1
 90
       50
176
     1
 40
0.0
176
     1
 40
1.0
176
     1
 90
        0
176
     1
 62
    18
420
        0
176
     1
 90
       50
176
     1
 90
        3
176
     1
 62
     5
420
      255
176
     1
290
     0
176
     1
 90
       50
176
     1
 90
       50
176
     1
 90
       50
176
     1
290
     0
176
     1
 90
       50
176
     1
 62
   256
176
     0
 40
1.0
176
     0
 90
        2
176
     1
  1
strokes_ogs.tif
176
     1
290
     0
176
     1
 40
1.0
176
     1
 40
1.0
176
     1
  0
VISUALSTYLE
  5
35
102
{ACAD_REACTORS
330
29
102
}
330
29
100
AcDbVisualStyle
  2
Brighten
 70
    12
177
     3
291
     1
 70
    58
 90
        2
176
     1
 90
        2
176
     1
 90
        0
176
     1
 90
        0
176
     1
 40
0.6
176
     1
 40
30.0
176
     1
 62
     7
420
 16777215
176
     1
 90
        1
176
     1
 90
        4
176
     1
 62
     7
176
     1
 62
   257
176
     1
 90
        1
176
     1
 90
        1
176
     1
 40
1.0
176
     1
 90
        8
176
     1
 62
     7
176
     1
 40
1.0
176
     1
 90
        1
176
     1
 90
        6
176
     1
 90
        2
176
     1
 62
     7
176
     1
 90
        5
176
     1
 90
        0
176
     1
 90
        0
176
     1
290
     0
176
     1
 90
        1
176
     1
 40
50.0
176
     1
 90
        0
176
     1
290
     0
176
     1
290
     1
176
     1
290
     1
176
     1
290
     0
176
     1
290
     0
176
     1
290
     0
176
     1
290
     0
176
     1
290
     0
176
     1
290
     0
176
     1
 90
       50
176
     1
 40
0.0
176
     1
 40
1.0
176
     1
 90
        0
176
     1
 62
    18
420
        0
176
     1
 90
       50
176
     1
 90
        3
176
     1
 62
     5
420
      255
176
     1
290
     0
176
     1
 90
       50
176
     1
 90
       50
176
     1
 90
       50
176
     1
290
     0
176
     1
 90
       50
176
     1
 62
   256
176
     0
 40
1.0
176
     0
 90
        2
176
     1
  1
strokes_ogs.tif
176
     1
290
     0
176
     1
 40
1.0
176
     1
 40
1.0
176
     1
  0
VISUALSTYLE
  5
39
102
{ACAD_REACTORS
330
29
102
}
330
29
100
AcDbVisualStyle
  2
ColorChange
 70
    16
177
     3
291
     1
 70
    58
 90
        2
176
     1
 90
        2
176
     1
 90
        3
176
     1
 90
        0
176
     1
 40
0.6
176
     1
 40
30.0
176
     1
 62
     8
420
  8421504
176
     1
 90
        1
176
     1
 90
        4
176
     1
 62
     7
176
     1
 62
   257
176
     1
 90
        1
176
     1
 90
        1
176
     1
 40
1.0
176
     1
 90
        8
176
     1
 62
     8
420
  8421504
176
     1
 40
1.0
176
     1
 90
        1
176
     1
 90
        6
176
     1
 90
        2
176
     1
 62
     7
176
     1
 90
        5
176
     1
 90
        0
176
     1
 90
        0
176
     1
290
     0
176
     1
 90
        1
176
     1
 40
0.0
176
     1
 90
        0
176
     1
290
     0
176
     1
290
     1
176
     1
290
     1
176
     1
290
     0
176
     1
290
     0
176
     1
290
     0
176
     1
290
     0
176
     1
290
     0
176
     1
290
     0
176
     1
 90
       50
176
     1
 40
0.0
176
     1
 40
1.0
176
     1
 90
        0
176
     1
 62
    18
420
        0
176
     1
 90
       50
176
     1
 90
        3
176
     1
 62
     5
420
      255
176
     1
290
     0
176
     1
 90
       50
176
     1
 90
       50
176
     1
 90
       50
176
     1
290
     0
176
     1
 90
       50
176
     1
 62
   256
176
     0
 40
1.0
176
     0
 90
        2
176
     1
  1
strokes_ogs.tif
176
     1
290
     0
176
     1
 40
1.0
176
     1
 40
1.0
176
     1
  0
VISUALSTYLE
  5
32
102
{ACAD_REACTORS
330
29
102
}
330
29
100
AcDbVisualStyle
  2
Conceptual
 70
     9
177
     3
291
     0
 70
    58
 90
        3
176
     1
 90
        2
176
     1
 90
        0
176
     1
 90
        0
176
     1
 40
0.6
176
     1
 40
30.0
176
     1
 62
     7
420
 16777215
176
     1
 90
        2
176
     1
 90
        2
176
     1
 62
     7
176
     1
 62
   257
176
     1
 90
        1
176
     1
 90
        1
176
     1
 40
179.0
176
     1
 90
        8
176
     1
 62
     7
176
     1
 40
1.0
176
     1
 90
        1
176
     1
 90
        6
176
     1
 90
        2
176
     1
 62
     7
176
     1
 90
        3
176
     1
 90
        0
176
     1
 90
        0
176
     1
290
     0
176
     1
 90
        1
176
     1
 40
0.0
176
     1
 90
        0
176
     1
290
     0
176
     1
290
     1
176
     1
290
     1
176
     1
290
     0
176
     1
290
     0
176
     1
290
     0
176
     1
290
     0
176
     1
290
     0
176
     1
290
     0
176
     1
 90
       50
176
     1
 40
0.0
176
     1
 40
1.0
176
     1
 90
        0
176
     1
 62
    18
420
        0
176
     1
 90
       50
176
     1
 90
        3
176
     1
 62
     5
420
      255
176
     1
290
     0
176
     1
 90
       50
176
     1
 90
       50
176
     1
 90
       50
176
     1
290
     0
176
     1
 90
       50
176
     1
 62
   256
176
     0
 40
1.0
176
     0
 90
        2
176
     1
  1
strokes_ogs.tif
176
     1
290
     0
176
     1
 40
1.0
176
     1
 40
1.0
176
     1
  0
VISUALSTYLE
  5
34
102
{ACAD_REACTORS
330
29
102
}
330
29
100
AcDbVisualStyle
  2
Dim
 70
    11
177
     3
291
     1
 70
    58
 90
        2
176
     1
 90
        2
176
     1
 90
        0
176
     1
 90
        0
176
     1
 40
0.6
176
     1
 40
30.0
176
     1
 62
     7
420
 16777215
176
     1
 90
        1
176
     1
 90
        4
176
     1
 62
     7
176
     1
 62
   257
176
     1
 90
        1
176
     1
 90
        1
176
     1
 40
1.0
176
     1
 90
        8
176
     1
 62
     7
176
     1
 40
1.0
176
     1
 90
        1
176
     1
 90
        6
176
     1
 90
        2
176
     1
 62
     7
176
     1
 90
        5
176
     1
 90
        0
176
     1
 90
        0
176
     1
290
     0
176
     1
 90
        1
176
     1
 40
-50.0
176
     1
 90
        0
176
     1
290
     0
176
     1
290
     1
176
     1
290
     1
176
     1
290
     0
176
     1
290
     0
176
     1
290
     0
176
     1
290
     0
176
     1
290
     0
176
     1
290
     0
176
     1
 90
       50
176
     1
 40
0.0
176
     1
 40
1.0
176
     1
 90
        0
176
     1
 62
    18
420
        0
176
     1
 90
       50
176
     1
 90
        3
176
     1
 62
     5
420
      255
176
     1
290
     0
176
     1
 90
       50
176
     1
 90
       50
176
     1
 90
       50
176
     1
290
     0
176
     1
 90
       50
176
     1
 62
   256
176
     0
 40
1.0
176
     0
 90
        2
176
     1
  1
strokes_ogs.tif
176
     1
290
     0
176
     1
 40
1.0
176
     1
 40
1.0
176
     1
  0
VISUALSTYLE
  5
41
102
{ACAD_REACTORS
330
29
102
}
330
29
100
AcDbVisualStyle
  2
EdgeColorOff
 70
    22
177
     3
291
     1
 70
    58
 90
        2
176
     0
 90
        2
176
     0
 90
        0
176
     0
 90
        0
176
     0
 40
0.6
176
     0
 40
30.0
176
     0
 62
     7
420
 16777215
176
     0
 90
        1
176
     0
 90
        4
176
     0
 62
     7
176
     0
 62
   257
176
     0
 90
        1
176
     0
 90
        1
176
     0
 40
1.0
176
     0
 90
        8
176
     2
 62
     7
176
     0
 40
1.0
176
     0
 90
        1
176
     0
 90
        6
176
     0
 90
        2
176
     0
 62
     7
176
     0
 90
        5
176
     0
 90
        0
176
     0
 90
        0
176
     0
290
     0
176
     0
 90
        1
176
     0
 40
0.0
176
     0
 90
        0
176
     0
290
     0
176
     0
290
     1
176
     0
290
     1
176
     0
290
     0
176
     0
290
     0
176
     0
290
     0
176
     0
290
     0
176
     0
290
     0
176
     0
290
     0
176
     0
 90
       50
176
     0
 40
0.0
176
     0
 40
1.0
176
     0
 90
        0
176
     0
 62
    18
420
        0
176
     0
 90
       50
176
     0
 90
        3
176
     0
 62
     5
420
      255
176
     0
290
     0
176
     0
 90
       50
176
     0
 90
       50
176
     0
 90
       50
176
     0
290
     0
176
     0
 90
       50
176
     0
 62
   256
176
     0
 40
1.0
176
     0
 90
        2
176
     0
  1
strokes_ogs.tif
176
     0
290
     0
176
     0
 40
1.0
176
     0
 40
1.0
176
     0
  0
VISUALSTYLE
  5
38
102
{ACAD_REACTORS
330
29
102
}
330
29
100
AcDbVisualStyle
  2
Facepattern
 70
    15
177
     3
291
     1
 70
    58
 90
        2
176
     1
 90
        2
176
     1
 90
        0
176
     1
 90
        0
176
     1
 40
0.6
176
     1
 40
30.0
176
     1
 62
     7
420
 16777215
176
     1
 90
        1
176
     1
 90
        4
176
     1
 62
     7
176
     1
 62
   257
176
     1
 90
        1
176
     1
 90
        1
176
     1
 40
1.0
176
     1
 90
        8
176
     1
 62
     7
176
     1
 40
1.0
176
     1
 90
        1
176
     1
 90
        6
176
     1
 90
        2
176
     1
 62
     7
176
     1
 90
        5
176
     1
 90
        0
176
     1
 90
        0
176
     1
290
     0
176
     1
 90
        1
176
     1
 40
0.0
176
     1
 90
        0
176
     1
290
     0
176
     1
290
     1
176
     1
290
     1
176
     1
290
     0
176
     1
290
     0
176
     1
290
     0
176
     1
290
     0
176
     1
290
     0
176
     1
290
     0
176
     1
 90
       50
176
     1
 40
0.0
176
     1
 40
1.0
176
     1
 90
        0
176
     1
 62
    18
420
        0
176
     1
 90
       50
176
     1
 90
        3
176
     1
 62
     5
420
      255
176
     1
290
     0
176
     1
 90
       50
176
     1
 90
       50
176
     1
 90
       50
176
     1
290
     0
176
     1
 90
       50
176
     1
 62
   256
176
     0
 40
1.0
176
     0
 90
        2
176
     1
  1
strokes_ogs.tif
176
     1
290
     0
176
     1
 40
1.0
176
     1
 40
1.0
176
     1
  0
VISUALSTYLE
  5
2A
102
{ACAD_REACTORS
330
29
102
}
330
29
100
AcDbVisualStyle
  2
Flat
 70
     0
177
     3
291
     1
 70
    58
 90
        2
176
     1
 90
        1
176
     1
 90
        1
176
     1
 90
        2
176
     1
 40
0.6
176
     1
 40
30.0
176
     1
 62
     7
420
 16777215
176
     1
 90
        0
176
     1
 90
        0
176
     1
 62
     7
176
     1
 62
   257
176
     1
 90
        1
176
     1
 90
        1
176
     1
 40
1.0
176
     1
 90
        8
176
     1
 62
     7
176
     1
 40
1.0
176
     1
 90
        1
176
     1
 90
        6
176
     1
 90
        2
176
     1
 62
     7
176
     1
 90
        5
176
     1
 90
        0
176
     1
 90
        0
176
     1
290
     0
176
     1
 90
       13
176
     1
 40
0.0
176
     1
 90
        0
176
     1
290
     0
176
     1
290
     1
176
     1
290
     1
176
     1
290
     0
176
     1
290
     0
176
     1
290
     0
176
     1
290
     0
176
     1
290
     0
176
     1
290
     0
176
     1
 90
       50
176
     1
 40
0.0
176
     1
 40
1.0
176
     1
 90
        0
176
     1
 62
    18
420
        0
176
     1
 90
       50
176
     1
 90
        3
176
     1
 62
     5
420
      255
176
     1
290
     0
176
     1
 90
       50
176
     1
 90
       50
176
     1
 90
       50
176
     1
290
     0
176
     1
 90
       50
176
     1
 62
   256
176
     0
 40
1.0
176
     0
 90
        2
176
     1
  1
strokes_ogs.tif
176
     1
290
     0
176
     1
 40
1.0
176
     1
 40
1.0
176
     1
  0
VISUALSTYLE
  5
2B
102
{ACAD_REACTORS
330
29
102
}
330
29
100
AcDbVisualStyle
  2
FlatWithEdges
 70
     1
177
     3
291
     1
 70
    58
 90
        2
176
     1
 90
        1
176
     1
 90
        1
176
     1
 90
        2
176
     1
 40
0.6
176
     1
 40
30.0
176
     1
 62
     7
420
 16777215
176
     1
 90
        1
176
     1
 90
        0
176
     1
 62
     7
176
     1
 62
   257
176
     1
 90
        1
176
     1
 90
        1
176
     1
 40
1.0
176
     1
 90
        0
176
     1
 62
   257
176
     1
 40
1.0
176
     1
 90
        1
176
     1
 90
        6
176
     1
 90
        2
176
     1
 62
     7
176
     1
 90
        5
176
     1
 90
        0
176
     1
 90
        0
176
     1
290
     0
176
     1
 90
       13
176
     1
 40
0.0
176
     1
 90
        0
176
     1
290
     0
176
     1
290
     1
176
     1
290
     1
176
     1
290
     0
176
     1
290
     0
176
     1
290
     0
176
     1
290
     0
176
     1
290
     0
176
     1
290
     0
176
     1
 90
       50
176
     1
 40
0.0
176
     1
 40
1.0
176
     1
 90
        0
176
     1
 62
    18
420
        0
176
     1
 90
       50
176
     1
 90
        3
176
     1
 62
     5
420
      255
176
     1
290
     0
176
     1
 90
       50
176
     1
 90
       50
176
     1
 90
       50
176
     1
290
     0
176
     1
 90
       50
176
     1
 62
   256
176
     0
 40
1.0
176
     0
 90
        2
176
     1
  1
strokes_ogs.tif
176
     1
290
     0
176
     1
 40
1.0
176
     1
 40
1.0
176
     1
  0
VISUALSTYLE
  5
2C
102
{ACAD_REACTORS
330
29
102
}
330
29
100
AcDbVisualStyle
  2
Gouraud
 70
     2
177
     3
291
     1
 70
    58
 90
        2
176
     1
 90
        2
176
     1
 90
        1
176
     1
 90
        2
176
     1
 40
0.6
176
     1
 40
30.0
176
     1
 62
     7
420
 16777215
176
     1
 90
        0
176
     1
 90
        0
176
     1
 62
     7
176
     1
 62
   257
176
     1
 90
        1
176
     1
 90
        1
176
     1
 40
1.0
176
     1
 90
        0
176
     1
 62
     7
176
     1
 40
1.0
176
     1
 90
        1
176
     1
 90
        6
176
     1
 90
        2
176
     1
 62
     7
176
     1
 90
        5
176
     1
 90
        0
176
     1
 90
        0
176
     1
290
     0
176
     1
 90
       13
176
     1
 40
0.0
176
     1
 90
        0
176
     1
290
     0
176
     1
290
     1
176
     1
290
     1
176
     1
290
     0
176
     1
290
     0
176
     1
290
     0
176
     1
290
     0
176
     1
290
     0
176
     1
290
     0
176
     1
 90
       50
176
     1
 40
0.0
176
     1
 40
1.0
176
     1
 90
        0
176
     1
 62
    18
420
        0
176
     1
 90
       50
176
     1
 90
        3
176
     1
 62
     5
420
      255
176
     1
290
     0
176
     1
 90
       50
176
     1
 90
       50
176
     1
 90
       50
176
     1
290
     0
176
     1
 90
       50
176
     1
 62
   256
176
     0
 40
1.0
176
     0
 90
        2
176
     1
  1
strokes_ogs.tif
176
     1
290
     0
176
     1
 40
1.0
176
     1
 40
1.0
176
     1
  0
VISUALSTYLE
  5
2D
102
{ACAD_REACTORS
330
29
102
}
330
29
100
AcDbVisualStyle
  2
GouraudWithEdges
 70
     3
177
     3
291
     1
 70
    58
 90
        2
176
     1
 90
        2
176
     1
 90
        1
176
     1
 90
        2
176
     1
 40
0.6
176
     1
 40
30.0
176
     1
 62
     7
420
 16777215
176
     1
 90
        1
176
     1
 90
        0
176
     1
 62
     7
176
     1
 62
   257
176
     1
 90
        1
176
     1
 90
        1
176
     1
 40
1.0
176
     1
 90
        0
176
     1
 62
   257
176
     1
 40
1.0
176
     1
 90
        1
176
     1
 90
        6
176
     1
 90
        2
176
     1
 62
     7
176
     1
 90
        5
176
     1
 90
        0
176
     1
 90
        0
176
     1
290
     0
176
     1
 90
       13
176
     1
 40
0.0
176
     1
 90
        0
176
     1
290
     0
176
     1
290
     1
176
     1
290
     1
176
     1
290
     0
176
     1
290
     0
176
     1
290
     0
176
     1
290
     0
176
     1
290
     0
176
     1
290
     0
176
     1
 90
       50
176
     1
 40
0.0
176
     1
 40
1.0
176
     1
 90
        0
176
     1
 62
    18
420
        0
176
     1
 90
       50
176
     1
 90
        3
176
     1
 62
     5
420
      255
176
     1
290
     0
176
     1
 90
       50
176
     1
 90
       50
176
     1
 90
       50
176
     1
290
     0
176
     1
 90
       50
176
     1
 62
   256
176
     0
 40
1.0
176
     0
 90
        2
176
     1
  1
strokes_ogs.tif
176
     1
290
     0
176
     1
 40
1.0
176
     1
 40
1.0
176
     1
  0
VISUALSTYLE
  5
31
102
{ACAD_REACTORS
330
29
102
}
330
29
100
AcDbVisualStyle
  2
Hidden
 70
     6
177
     3
291
     0
 70
    58
 90
        1
176
     1
 90
        2
176
     1
 90
        2
176
     1
 90
        0
176
     1
 40
0.6
176
     1
 40
30.0
176
     1
 62
     7
420
 16777215
176
     1
 90
        2
176
     1
 90
        2
176
     1
 62
     7
176
     1
 62
   257
176
     1
 90
        2
176
     1
 90
        1
176
     1
 40
40.0
176
     1
 90
        0
176
     1
 62
   257
176
     1
 40
1.0
176
     1
 90
        1
176
     1
 90
        6
176
     1
 90
        2
176
     1
 62
     7
176
     1
 90
        3
176
     1
 90
        0
176
     1
 90
        0
176
     1
290
     0
176
     1
 90
        1
176
     1
 40
0.0
176
     1
 90
        0
176
     1
290
     0
176
     1
290
     1
176
     1
290
     1
176
     1
290
     0
176
     1
290
     0
176
     1
290
     0
176
     1
290
     0
176
     1
290
     0
176
     1
290
     0
176
     1
 90
       50
176
     1
 40
0.0
176
     1
 40
1.0
176
     1
 90
        0
176
     1
 62
    18
420
        0
176
     1
 90
       50
176
     1
 90
        3
176
     1
 62
     5
420
      255
176
     1
290
     0
176
     1
 90
       50
176
     1
 90
       50
176
     1
 90
       50
176
     1
290
     0
176
     1
 90
       50
176
     1
 62
   256
176
     0
 40
1.0
176
     0
 90
        2
176
     1
  1
strokes_ogs.tif
176
     1
290
     0
176
     1
 40
1.0
176
     1
 40
1.0
176
     1
  0
VISUALSTYLE
  5
3F
102
{ACAD_REACTORS
330
29
102
}
330
29
100
AcDbVisualStyle
  2
JitterOff
 70
    20
177
     3
291
     1
 70
    58
 90
        2
176
     0
 90
        2
176
     0
 90
        0
176
     0
 90
        0
176
     0
 40
0.6
176
     0
 40
30.0
176
     0
 62
     7
420
 16777215
176
     0
 90
        1
176
     0
 90
        4
176
     0
 62
     7
176
     0
 62
   257
176
     0
 90
        1
176
     0
 90
        1
176
     0
 40
1.0
176
     0
 90
       10
176
     2
 62
     7
176
     0
 40
1.0
176
     0
 90
        1
176
     0
 90
        6
176
     0
 90
        2
176
     0
 62
     7
176
     0
 90
        5
176
     0
 90
        0
176
     0
 90
        0
176
     0
290
     0
176
     0
 90
        1
176
     0
 40
0.0
176
     0
 90
        0
176
     0
290
     0
176
     0
290
     1
176
     0
290
     1
176
     0
290
     0
176
     0
290
     0
176
     0
290
     0
176
     0
290
     0
176
     0
290
     0
176
     0
290
     0
176
     0
 90
       50
176
     0
 40
0.0
176
     0
 40
1.0
176
     0
 90
        0
176
     0
 62
    18
420
        0
176
     0
 90
       50
176
     0
 90
        3
176
     0
 62
     5
420
      255
176
     0
290
     0
176
     0
 90
       50
176
     0
 90
       50
176
     0
 90
       50
176
     0
290
     0
176
     0
 90
       50
176
     0
 62
   256
176
     0
 40
1.0
176
     0
 90
        2
176
     0
  1
strokes_ogs.tif
176
     0
290
     0
176
     0
 40
1.0
176
     0
 40
1.0
176
     0
  0
VISUALSTYLE
  5
37
102
{ACAD_REACTORS
330
29
102
}
330
29
100
AcDbVisualStyle
  2
Linepattern
 70
    14
177
     3
291
     1
 70
    58
 90
        2
176
     1
 90
        2
176
     1
 90
        0
176
     1
 90
        0
176
     1
 40
0.6
176
     1
 40
30.0
176
     1
 62
     7
420
 16777215
176
     1
 90
        1
176
     1
 90
        4
176
     1
 62
     7
176
     1
 62
   257
176
     1
 90
        7
176
     1
 90
        7
176
     1
 40
1.0
176
     1
 90
        8
176
     1
 62
     7
176
     1
 40
1.0
176
     1
 90
        1
176
     1
 90
        6
176
     1
 90
        2
176
     1
 62
     7
176
     1
 90
        5
176
     1
 90
        0
176
     1
 90
        0
176
     1
290
     0
176
     1
 90
        1
176
     1
 40
0.0
176
     1
 90
        0
176
     1
290
     0
176
     1
290
     1
176
     1
290
     1
176
     1
290
     0
176
     1
290
     0
176
     1
290
     0
176
     1
290
     0
176
     1
290
     0
176
     1
290
     0
176
     1
 90
       50
176
     1
 40
0.0
176
     1
 40
1.0
176
     1
 90
        0
176
     1
 62
    18
420
        0
176
     1
 90
       50
176
     1
 90
        3
176
     1
 62
     5
420
      255
176
     1
290
     0
176
     1
 90
       50
176
     1
 90
       50
176
     1
 90
       50
176
     1
290
     0
176
     1
 90
       50
176
     1
 62
   256
176
     0
 40
1.0
176
     0
 90
        2
176
     1
  1
strokes_ogs.tif
176
     1
290
     0
176
     1
 40
1.0
176
     1
 40
1.0
176
     1
  0
VISUALSTYLE
  5
40
102
{ACAD_REACTORS
330
29
102
}
330
29
100
AcDbVisualStyle
  2
OverhangOff
 70
    21
177
     3
291
     1
 70
    58
 90
        2
176
     0
 90
        2
176
     0
 90
        0
176
     0
 90
        0
176
     0
 40
0.6
176
     0
 40
30.0
176
     0
 62
     7
420
 16777215
176
     0
 90
        1
176
     0
 90
        4
176
     0
 62
     7
176
     0
 62
   257
176
     0
 90
        1
176
     0
 90
        1
176
     0
 40
1.0
176
     0
 90
        9
176
     2
 62
     7
176
     0
 40
1.0
176
     0
 90
        1
176
     0
 90
        6
176
     0
 90
        2
176
     0
 62
     7
176
     0
 90
        5
176
     0
 90
        0
176
     0
 90
        0
176
     0
290
     0
176
     0
 90
        1
176
     0
 40
0.0
176
     0
 90
        0
176
     0
290
     0
176
     0
290
     1
176
     0
290
     1
176
     0
290
     0
176
     0
290
     0
176
     0
290
     0
176
     0
290
     0
176
     0
290
     0
176
     0
290
     0
176
     0
 90
       50
176
     0
 40
0.0
176
     0
 40
1.0
176
     0
 90
        0
176
     0
 62
    18
420
        0
176
     0
 90
       50
176
     0
 90
        3
176
     0
 62
     5
420
      255
176
     0
290
     0
176
     0
 90
       50
176
     0
 90
       50
176
     0
 90
       50
176
     0
290
     0
176
     0
 90
       50
176
     0
 62
   256
176
     0
 40
1.0
176
     0
 90
        2
176
     0
  1
strokes_ogs.tif
176
     0
290
     0
176
     0
 40
1.0
176
     0
 40
1.0
176
     0
  0
VISUALSTYLE
  5
33
102
{ACAD_REACTORS
330
29
102
}
330
29
100
AcDbVisualStyle
  2
Realistic
 70
     8
177
     3
291
     0
 70
    58
 90
        2
176
     1
 90
        3
176
     1
 90
        0
176
     1
 90
        2
176
     1
 40
0.6
176
     1
 40
30.0
176
     1
 62
     7
420
 16777215
176
     1
 90
        0
176
     1
 90
        0
176
     1
 62
     7
176
     1
 62
   257
176
     1
 90
        1
176
     1
 90
        1
176
     1
 40
1.0
176
     1
 90
        8
176
     1
 62
   257
176
     1
 40
1.0
176
     1
 90
        1
176
     1
 90
        6
176
     1
 90
        2
176
     1
 62
     7
176
     1
 90
        3
176
     1
 90
        0
176
     1
 90
        0
176
     1
290
     0
176
     1
 90
       13
176
     1
 40
0.0
176
     1
 90
        0
176
     1
290
     0
176
     1
290
     1
176
     1
290
     1
176
     1
290
     0
176
     1
290
     0
176
     1
290
     0
176
     1
290
     0
176
     1
290
     0
176
     1
290
     0
176
     1
 90
       50
176
     1
 40
0.0
176
     1
 40
1.0
176
     1
 90
        0
176
     1
 62
    18
420
        0
176
     1
 90
       50
176
     1
 90
        3
176
     1
 62
     5
420
      255
176
     1
290
     0
176
     1
 90
       50
176
     1
 90
       50
176
     1
 90
       50
176
     1
290
     0
176
     1
 90
       50
176
     1
 62
   256
176
     0
 40
1.0
176
     0
 90
        2
176
     1
  1
strokes_ogs.tif
176
     1
290
     0
176
     1
 40
1.0
176
     1
 40
1.0
176
     1
  0
VISUALSTYLE
  5
3E
102
{ACAD_REACTORS
330
29
102
}
330
29
100
AcDbVisualStyle
  2
Shaded
 70
    27
177
     3
291
     0
 70
    58
 90
        2
176
     1
 90
        2
176
     1
 90
        1
176
     1
 90
        2
176
     1
 40
0.6
176
     1
 40
30.0
176
     1
 62
     7
420
 16777215
176
     1
 90
        0
176
     1
 90
        4
176
     1
 62
     7
176
     1
 62
   257
176
     1
 90
        1
176
     1
 90
        1
176
     1
 40
1.0
176
     1
 90
        8
176
     1
 62
   257
176
     1
 40
1.0
176
     1
 90
        1
176
     1
 90
        6
176
     1
 90
        2
176
     1
 62
     8
420
  7895160
176
     1
 90
        3
176
     1
 90
        0
176
     1
 90
        0
176
     1
290
     0
176
     1
 90
        5
176
     1
 40
0.0
176
     1
 90
        0
176
     1
290
     0
176
     1
290
     1
176
     1
290
     1
176
     1
290
     0
176
     1
290
     0
176
     1
290
     0
176
     1
290
     0
176
     1
290
     0
176
     1
290
     0
176
     1
 90
       50
176
     1
 40
0.0
176
     1
 40
1.0
176
     1
 90
        0
176
     1
 62
    18
420
        0
176
     1
 90
       50
176
     1
 90
        3
176
     1
 62
     5
420
      255
176
     1
290
     0
176
     1
 90
       50
176
     1
 90
       50
176
     1
 90
       50
176
     1
290
     0
176
     1
 90
       50
176
     1
 62
   256
176
     0
 40
1.0
176
     0
 90
        2
176
     1
  1
strokes_ogs.tif
176
     1
290
     0
176
     1
 40
1.0
176
     1
 40
1.0
176
     1
  0
VISUALSTYLE
  5
3D
102
{ACAD_REACTORS
330
29
102
}
330
29
100
AcDbVisualStyle
  2
Shaded with edges
 70
    26
177
     3
291
     0
 70
    58
 90
        2
176
     1
 90
        2
176
     1
 90
        1
176
     1
 90
        2
176
     1
 40
0.6
176
     1
 40
30.0
176
     1
 62
     7
420
 16777215
176
     1
 90
        1
176
     1
 90
        2
176
     1
 62
     7
176
     1
 62
   257
176
     1
 90
        2
176
     1
 90
        1
176
     1
 40
1.0
176
     1
 90
        8
176
     1
 62
   257
176
     1
 40
1.0
176
     1
 90
        1
176
     1
 90
        6
176
     1
 90
        2
176
     1
 62
     7
176
     1
 90
        3
176
     1
 90
        0
176
     1
 90
        0
176
     1
290
     0
176
     1
 90
        5
176
     1
 40
0.0
176
     1
 90
        0
176
     1
290
     0
176
     1
290
     1
176
     1
290
     1
176
     1
290
     0
176
     1
290
     0
176
     1
290
     0
176
     1
290
     0
176
     1
290
     0
176
     1
290
     0
176
     1
 90
       50
176
     1
 40
0.0
176
     1
 40
1.0
176
     1
 90
        0
176
     1
 62
    18
420
        0
176
     1
 90
       50
176
     1
 90
        3
176
     1
 62
     5
420
      255
176
     1
290
     0
176
     1
 90
       50
176
     1
 90
       50
176
     1
 90
       50
176
     1
290
     0
176
     1
 90
       50
176
     1
 62
   256
176
     0
 40
1.0
176
     0
 90
        2
176
     1
  1
strokes_ogs.tif
176
     1
290
     0
176
     1
 40
1.0
176
     1
 40
1.0
176
     1
  0
VISUALSTYLE
  5
3A
102
{ACAD_REACTORS
330
29
102
}
330
29
100
AcDbVisualStyle
  2
Shades of Gray
 70
    23
177
     3
291
     0
 70
    58
 90
        2
176
     1
 90
        2
176
     1
 90
        3
176
     1
 90
        0
176
     1
 40
0.6
176
     1
 40
30.0
176
     1
 62
     7
420
 16777215
176
     1
 90
        2
176
     1
 90
        2
176
     1
 62
     7
176
     1
 62
     7
176
     1
 90
        1
176
     1
 90
        1
176
     1
 40
40.0
176
     1
 90
        8
176
     1
 62
     7
176
     1
 40
1.0
176
     1
 90
        1
176
     1
 90
        6
176
     1
 90
        2
176
     1
 62
     7
176
     1
 90
        3
176
     1
 90
        0
176
     1
 90
        0
176
     1
290
     0
176
     1
 90
        1
176
     1
 40
0.0
176
     1
 90
        0
176
     1
290
     0
176
     1
290
     1
176
     1
290
     1
176
     1
290
     0
176
     1
290
     0
176
     1
290
     0
176
     1
290
     0
176
     1
290
     0
176
     1
290
     0
176
     1
 90
       50
176
     1
 40
0.0
176
     1
 40
1.0
176
     1
 90
        0
176
     1
 62
    18
420
        0
176
     1
 90
       50
176
     1
 90
        3
176
     1
 62
     5
420
      255
176
     1
290
     0
176
     1
 90
       50
176
     1
 90
       50
176
     1
 90
       50
176
     1
290
     0
176
     1
 90
       50
176
     1
 62
   256
176
     0
 40
1.0
176
     0
 90
        2
176
     1
  1
strokes_ogs.tif
176
     1
290
     0
176
     1
 40
1.0
176
     1
 40
1.0
176
     1
  0
VISUALSTYLE
  5
3B
102
{ACAD_REACTORS
330
29
102
}
330
29
100
AcDbVisualStyle
  2
Sketchy
 70
    24
177
     3
291
     0
 70
    58
 90
        1
176
     1
 90
        2
176
     1
 90
        2
176
     1
 90
        0
176
     1
 40
0.6
176
     1
 40
30.0
176
     1
 62
     7
420
 16777215
176
     1
 90
        2
176
     1
 90
        2
176
     1
 62
     7
176
     1
 62
     7
176
     1
 90
        1
176
     1
 90
        1
176
     1
 40
40.0
176
     1
 90
       11
176
     1
 62
     7
176
     1
 40
1.0
176
     1
 90
        1
176
     1
 90
        6
176
     1
 90
        2
176
     1
 62
     7
176
     1
 90
        6
176
     1
 90
        0
176
     1
 90
        0
176
     1
290
     0
176
     1
 90
        1
176
     1
 40
0.0
176
     1
 90
        0
176
     1
290
     0
176
     1
290
     1
176
     1
290
     1
176
     1
290
     0
176
     1
290
     0
176
     1
290
     0
176
     1
290
     0
176
     1
290
     0
176
     1
290
     0
176
     1
 90
       50
176
     1
 40
0.0
176
     1
 40
1.0
176
     1
 90
        0
176
     1
 62
    18
420
        0
176
     1
 90
       50
176
     1
 90
        3
176
     1
 62
     5
420
      255
176
     1
290
     0
176
     1
 90
       50
176
     1
 90
       50
176
     1
 90
       50
176
     1
290
     0
176
     1
 90
       50
176
     1
 62
   256
176
     0
 40
1.0
176
     0
 90
        2
176
     1
  1
strokes_ogs.tif
176
     1
290
     0
176
     1
 40
1.0
176
     1
 40
1.0
176
     1
  0
VISUALSTYLE
  5
36
102
{ACAD_REACTORS
330
29
102
}
330
29
100
AcDbVisualStyle
  2
Thicken
 70
    13
177
     3
291
     1
 70
    58
 90
        2
176
     1
 90
        2
176
     1
 90
        0
176
     1
 90
        0
176
     1
 40
0.6
176
     1
 40
30.0
176
     1
 62
     7
420
 16777215
176
     1
 90
        1
176
     1
 90
        4
176
     1
 62
     7
176
     1
 62
   257
176
     1
 90
        1
176
     1
 90
        1
176
     1
 40
1.0
176
     1
 90
       12
176
     1
 62
     7
176
     1
 40
1.0
176
     1
 90
        1
176
     1
 90
        6
176
     1
 90
        2
176
     1
 62
     7
176
     1
 90
        5
176
     1
 90
        0
176
     1
 90
        0
176
     1
290
     0
176
     1
 90
        1
176
     1
 40
0.0
176
     1
 90
        0
176
     1
290
     0
176
     1
290
     1
176
     1
290
     1
176
     1
290
     0
176
     1
290
     0
176
     1
290
     0
176
     1
290
     0
176
     1
290
     0
176
     1
290
     0
176
     1
 90
       50
176
     1
 40
0.0
176
     1
 40
1.0
176
     1
 90
        0
176
     1
 62
    18
420
        0
176
     1
 90
       50
176
     1
 90
        3
176
     1
 62
     5
420
      255
176
     1
290
     0
176
     1
 90
       50
176
     1
 90
       50
176
     1
 90
       50
176
     1
290
     0
176
     1
 90
       50
176
     1
 62
   256
176
     0
 40
1.0
176
     0
 90
        2
176
     1
  1
strokes_ogs.tif
176
     1
290
     0
176
     1
 40
1.0
176
     1
 40
1.0
176
     1
  0
VISUALSTYLE
  5
30
102
{ACAD_REACTORS
330
29
102
}
330
29
100
AcDbVisualStyle
  2
Wireframe
 70
     5
177
     3
291
     0
 70
    58
 90
        0
176
     1
 90
        2
176
     1
 90
        0
176
     1
 90
        0
176
     1
 40
0.6
176
     1
 40
30.0
176
     1
 62
     7
420
 16777215
176
     1
 90
        1
176
     1
 90
        4
176
     1
 62
     7
176
     1
 62
   257
176
     1
 90
        1
176
     1
 90
        1
176
     1
 40
1.0
176
     1
 90
        0
176
     1
 62
   257
176
     1
 40
1.0
176
     1
 90
        1
176
     1
 90
        6
176
     1
 90
        2
176
     1
 62
     7
176
     1
 90
        3
176
     1
 90
        0
176
     1
 90
        0
176
     1
290
     0
176
     1
 90
        1
176
     1
 40
0.0
176
     1
 90
        0
176
     1
290
     0
176
     1
290
     1
176
     1
290
     1
176
     1
290
     0
176
     1
290
     0
176
     1
290
     0
176
     1
290
     0
176
     1
290
     0
176
     1
290
     0
176
     1
 90
       50
176
     1
 40
0.0
176
     1
 40
1.0
176
     1
 90
        0
176
     1
 62
    18
420
        0
176
     1
 90
       50
176
     1
 90
        3
176
     1
 62
     5
420
      255
176
     1
290
     0
176
     1
 90
       50
176
     1
 90
       50
176
     1
 90
       50
176
     1
290
     0
176
     1
 90
       50
176
     1
 62
   256
176
     0
 40
1.0
176
     0
 90
        2
176
     1
  1
strokes_ogs.tif
176
     1
290
     0
176
     1
 40
1.0
176
     1
 40
1.0
176
     1
  0
VISUALSTYLE
  5
3C
102
{ACAD_REACTORS
330
29
102
}
330
29
100
AcDbVisualStyle
  2
X-Ray
 70
    25
177
     3
291
     0
 70
    58
 90
        2
176
     1
 90
        2
176
     1
 90
        1
176
     1
 90
        1
176
     1
 40
0.5
176
     1
 40
30.0
176
     1
 62
     7
420
 16777215
176
     1
 90
        1
176
     1
 90
        0
176
     1
 62
     7
176
     1
 62
   257
176
     1
 90
        1
176
     1
 90
        1
176
     1
 40
1.0
176
     1
 90
        8
176
     1
 62
     7
176
     1
 40
1.0
176
     1
 90
        1
176
     1
 90
        6
176
     1
 90
        2
176
     1
 62
     7
176
     1
 90
        3
176
     1
 90
        0
176
     1
 90
        0
176
     1
290
     0
176
     1
 90
       13
176
     1
 40
0.0
176
     1
 90
        0
176
     1
290
     0
176
     1
290
     1
176
     1
290
     1
176
     1
290
     0
176
     1
290
     0
176
     1
290
     0
176
     1
290
     0
176
     1
290
     0
176
     1
290
     0
176
     1
 90
       50
176
     1
 40
0.0
176
     1
 40
1.0
176
     1
 90
        0
176
     1
 62
    18
420
        0
176
     1
 90
       50
176
     1
 90
        3
176
     1
 62
     5
420
      255
176
     1
290
     0
176
     1
 90
       50
176
     1
 90
       50
176
     1
 90
       50
176
     1
290
     0
176
     1
 90
       50
176
     1
 62
   256
176
     0
 40
1.0
176
     0
 90
        2
176
     1
  1
strokes_ogs.tif
176
     1
290
     0
176
     1
 40
1.0
176
     1
 40
1.0
176
     1
  0
DICTIONARYVAR
  5
A8
102
{ACAD_REACTORS
330
A3
102
}
330
A3
100
DictionaryVariables
280
     0
  1
1:1
  0
DICTIONARYVAR
  5
A5
102
{ACAD_REACTORS
330
A3
102
}
330
A3
100
DictionaryVariables
280
     0
  1
STANDARD
  0
DICTIONARYVAR
  5
A4
102
{ACAD_REACTORS
330
A3
102
}
330
A3
100
DictionaryVariables
280
     0
  1
STANDARD
  0
DICTIONARYVAR
  5
A6
102
{ACAD_REACTORS
330
A3
102
}
330
A3
100
DictionaryVariables
280
     0
  1
Imperial24
  0
DICTIONARYVAR
  5
A7
102
{ACAD_REACTORS
330
A3
102
}
330
A3
100
DictionaryVariables
280
     0
  1
Imperial24
  0
DICTIONARY
  5
1A
330
19
100
AcDbDictionary
280
     1
281
     1
  3
BUMPTILE
360
1C
  3
DIFFUSETILE
360
1B
  3
OPACITYTILE
360
1F
  3
REFLECTIONTILE
360
1E
  3
REFRACTIONTILE
360
20
  3
SPECULARTILE
360
1D
  0
DICTIONARY
  5
12
330
11
100
AcDbDictionary
280
     1
281
     1
  3
BUMPTILE
360
14
  3
DIFFUSETILE
360
13
  3
OPACITYTILE
360
17
  3
REFLECTIONTILE
360
16
  3
REFRACTIONTILE
360
18
  3
SPECULARTILE
360
15
  0
DICTIONARY
  5
22
330
21
100
AcDbDictionary
280
     1
281
     1
  3
BUMPTILE
360
24
  3
DIFFUSETILE
360
23
  3
OPACITYTILE
360
27
  3
REFLECTIONTILE
360
26
  3
REFRACTIONTILE
360
28
  3
SPECULARTILE
360
25
  0
DICTIONARY
  5
A9
330
65
100
AcDbDictionary
280
     1
281
     1
  3
ACAD_ROUNDTRIP_2008_TABLESTYLE_CELLSTYLEMAP
360
AA
  0
XRECORD
  5
1C
102
{ACAD_REACTORS
330
1A
102
}
330
1A
100
AcDbXrecord
280
     1
270
     1
271
     1
  0
XRECORD
  5
1B
102
{ACAD_REACTORS
330
1A
102
}
330
1A
100
AcDbXrecord
280
     1
270
     1
271
     1
  0
XRECORD
  5
1F
102
{ACAD_REACTORS
330
1A
102
}
330
1A
100
AcDbXrecord
280
     1
270
     1
271
     1
  0
XRECORD
  5
1E
102
{ACAD_REACTORS
330
1A
102
}
330
1A
100
AcDbXrecord
280
     1
270
     1
271
     1
  0
XRECORD
  5
20
102
{ACAD_REACTORS
330
1A
102
}
330
1A
100
AcDbXrecord
280
     1
270
     1
271
     1
  0
XRECORD
  5
1D
102
{ACAD_REACTORS
330
1A
102
}
330
1A
100
AcDbXrecord
280
     1
270
     1
271
     1
  0
XRECORD
  5
14
102
{ACAD_REACTORS
330
12
102
}
330
12
100
AcDbXrecord
280
     1
270
     1
271
     1
  0
XRECORD
  5
13
102
{ACAD_REACTORS
330
12
102
}
330
12
100
AcDbXrecord
280
     1
270
     1
271
     1
  0
XRECORD
  5
17
102
{ACAD_REACTORS
330
12
102
}
330
12
100
AcDbXrecord
280
     1
270
     1
271
     1
  0
XRECORD
  5
16
102
{ACAD_REACTORS
330
12
102
}
330
12
100
AcDbXrecord
280
     1
270
     1
271
     1
  0
XRECORD
  5
18
102
{ACAD_REACTORS
330
12
102
}
330
12
100
AcDbXrecord
280
     1
270
     1
271
     1
  0
XRECORD
  5
15
102
{ACAD_REACTORS
330
12
102
}
330
12
100
AcDbXrecord
280
     1
270
     1
271
     1
  0
XRECORD
  5
24
102
{ACAD_REACTORS
330
22
102
}
330
22
100
AcDbXrecord
280
     1
270
     1
271
     1
  0
XRECORD
  5
23
102
{ACAD_REACTORS
330
22
102
}
330
22
100
AcDbXrecord
280
     1
270
     1
271
     1
  0
XRECORD
  5
27
102
{ACAD_REACTORS
330
22
102
}
330
22
100
AcDbXrecord
280
     1
270
     1
271
     1
  0
XRECORD
  5
26
102
{ACAD_REACTORS
330
22
102
}
330
22
100
AcDbXrecord
280
     1
270
     1
271
     1
  0
XRECORD
  5
28
102
{ACAD_REACTORS
330
22
102
}
330
22
100
AcDbXrecord
280
     1
270
     1
271
     1
  0
XRECORD
  5
25
102
{ACAD_REACTORS
330
22
102
}
330
22
100
AcDbXrecord
280
     1
270
     1
271
     1
  0
CELLSTYLEMAP
  5
AA
102
{ACAD_REACTORS
330
A9
102
}
330
A9
100
AcDbCellStyleMap
 90
        3
300
CELLSTYLE
  1
TABLEFORMAT_BEGIN
 90
        5
170
     1
 91
        0
 92
    32768
 62
   257
 93
        1
300
CONTENTFORMAT
  1
CONTENTFORMAT_BEGIN
 90
        0
 91
        0
 92
      512
 93
        0
300

 40
0.0
140
1.0
 94
        5
 62
     0
340
55
144
0.25
309
CONTENTFORMAT_END
171
     0
 94
        0
309
TABLEFORMAT_END
  1
CELLSTYLE_BEGIN
 90
        1
 91
        1
300
_TITLE
309
CELLSTYLE_END
300
CELLSTYLE
  1
TABLEFORMAT_BEGIN
 90
        5
170
     1
 91
        0
 92
        0
 62
   257
 93
        1
300
CONTENTFORMAT
  1
CONTENTFORMAT_BEGIN
 90
        0
 91
        0
 92
      512
 93
        0
300

 40
0.0
140
1.0
 94
        5
 62
     0
340
55
144
0.18
309
CONTENTFORMAT_END
171
     0
 94
        0
309
TABLEFORMAT_END
  1
CELLSTYLE_BEGIN
 90
        2
 91
        1
300
_HEADER
309
CELLSTYLE_END
300
CELLSTYLE
  1
TABLEFORMAT_BEGIN
 90
        5
170
     1
 91
        0
 92
        0
 62
   257
 93
        1
300
CONTENTFORMAT
  1
CONTENTFORMAT_BEGIN
 90
        0
 91
        0
 92
      512
 93
        0
300

 40
0.0
140
1.0
 94
        2
 62
     0
340
55
144
0.18
309
CONTENTFORMAT_END
171
     0
 94
        0
309
TABLEFORMAT_END
  1
CELLSTYLE_BEGIN
 90
        3
 91
        2
300
_DATA
309
CELLSTYLE_END
  0
ENDSEC
  0
EOF
